<svg width="163" height="162" viewBox="0 0 163 162" fill="none" xmlns="http://www.w3.org/2000/svg">
<g clip-path="url(#clip0_2_3)">
<path d="M76.2698 22.6955C76.6731 22.6393 77.8022 22.761 78.3315 22.7768C80.0371 22.8278 81.5969 22.8638 83.3048 22.7841C87.1425 23.0445 95.097 23.8363 98.7443 24.7464C101.781 25.5039 108.229 28.8561 111.118 30.4107C113.495 31.4539 115.838 32.269 117.686 34.2016C118.096 34.6305 118.567 35.6626 118.899 35.9651C121.7 38.5171 123.57 41.0754 125.765 44.16C126.785 44.375 128.018 44.535 128.872 45.0985C128.64 45.6247 128.099 46.8846 128.246 47.4146C128.573 47.9696 128.694 48.0188 129.25 48.3518L129.505 48.3562C129.727 48.0656 129.898 47.8691 130.051 47.5332C130.522 48.0314 130.393 48.4551 130.641 48.9892C132.581 53.1653 134.409 57.2217 135.427 61.743C135.706 62.981 136.462 64.3635 136.648 65.6597C137.267 68.4792 137.163 72.7263 137.9 75.3985C138.983 79.3238 138.039 77.9435 137.665 81.2435C137.344 84.0865 137.414 87.3617 136.904 90.265C136.775 91.5319 136.889 92.8553 136.744 94.1296C136.506 96.2207 135.712 98.306 134.782 100.18C134.101 101.55 133.198 102.695 132.397 103.964C132.263 105.34 131.505 107.214 130.735 108.343C130.14 108.802 127.914 112.053 127.855 112.669C126.76 112.772 126.562 113.289 125.946 114.113C125.669 114.434 125.4 114.75 125.111 115.06C124.423 115.769 123.711 116.492 123.03 117.169C121.845 118.348 120.592 119.423 122.136 120.968C125.204 124.04 128.433 127.113 131.52 130.163C132.576 131.205 138.191 135.656 138.5 136.49C138.046 136.852 136.849 136.687 136.249 136.65L135.862 136.8C135.454 137.804 135.951 138.314 135.477 139.053C134.247 139.277 131.43 138.952 130.32 139.288C128.403 138.982 126.238 138.914 124.365 138.483C122.255 137.997 116.801 135.791 114.817 135.959C114.868 138.544 113.076 138.059 116.787 140.233C117.881 141.766 116.583 141.624 117.824 143.046C118.341 143.638 119.121 144.895 119.382 145.65L118.999 145.905C119.272 147.089 120.231 149.006 119.59 150.291C118.757 150.896 117.698 149.529 116.798 149.207C116.287 148.867 109.468 137.3 109.027 135.763C108.799 134.971 108.031 133.729 108.011 132.754C108.005 132.47 107.502 132.297 107.226 132.167C107.474 131.768 108.834 130.625 109.253 130.34C109.927 130.305 111.888 131.373 112.937 131.654C118.849 133.235 124.689 134.882 130.705 135.946C130.689 135.943 131.141 136.256 131.177 136.281L131.277 136.223L131.283 135.876C130.246 133.654 125.683 130.301 123.946 128.335C122.566 126.772 121.219 124.365 119.806 123.069C119.839 122.461 119.978 121.45 119.608 120.983C118.417 120.783 109.638 128.861 107.272 129.526C104.722 130.243 100.822 131.761 98.3098 132.79C98.0006 133.305 97.6934 133.753 97.3911 134.284C97.4863 134.997 98.0459 134.72 98.4768 135.384C98.7616 135.823 98.8516 136.567 98.8302 137.079C98.6519 141.34 97.7087 145.228 96.9623 149.378C96.4083 152.458 96.23 155.506 95.5561 158.588L95.4531 158.595C94.7723 158.64 93.6276 158.744 92.9115 158.912C92.7277 159.121 92.5735 159.298 92.4485 159.44C91.0887 159.782 88.1889 156.622 87.6309 155.424C86.0194 151.965 84.7696 147.896 83.4519 144.346C81.9811 146.767 80.7161 149.401 79.4765 151.918C78.4704 153.959 76.0718 160.63 74.3712 161.63C73.1744 161.394 73.6487 160.204 73.2866 159.916C71.9916 158.888 72.0446 158.436 71.8818 156.881C71.2412 150.765 68.0604 145.389 67.1947 139.328C67.1687 138.832 66.4624 136.29 67.0012 136.022C73.604 132.741 72.2787 148.847 74.9571 149.32C76.1476 148.944 77.2271 145.995 77.8811 144.889C78.9639 143.059 79.9852 141.144 80.9968 139.272C85.8269 136.404 87.6197 147.019 89.8343 149.834C90.318 150.448 90.7244 152.804 91.7774 152.686L91.8234 152.569C92.4752 150.855 92.8747 146.869 93.2507 144.924C93.6978 142.611 94.2333 140.609 94.8549 138.337C95.0772 137.525 95.8883 134.93 95.6209 134.328C94.1739 134.452 91.7749 135.469 90.4909 135.404C84.6915 135.108 78.8579 134.758 73.0602 134.424C71.8645 134.355 69.4527 133.354 68.3136 132.972C63.8164 131.472 59.379 129.798 55.0115 127.954C53.736 127.413 49.0263 124.667 48.0591 124.627C47.5128 124.604 47.8017 123.694 47.6181 123.329C47.4887 123.071 47.2062 122.808 47.0106 122.594C45.4913 120.933 43.8252 119.391 42.2321 117.8L42.2899 117.722L42.2388 117.537L41.1128 117.088C38.8059 116.385 35.1014 109.436 34.0736 107.291C34.1109 106.72 31.5181 103.885 31.1905 103.126C31.0268 102.747 30.9646 102.365 30.8252 101.954C29.8989 99.2519 29.0562 97.5278 28.0992 94.9733C26.0386 89.4726 25.346 82.7339 25.2886 76.8839C25.1826 75.6632 25.7523 73.7638 25.708 72.6363C25.5542 68.7204 26.6743 65.85 27.9283 62.2093C28.3556 60.9686 28.1272 57.9841 28.6812 56.9314C31.1875 52.1697 35.1929 47.811 38.4981 43.5503C39.1032 42.9077 40.5034 39.7234 41.0864 39.3601C42.9956 38.1706 44.1045 36.6675 45.6865 35.1676C47.9377 33.0333 50.7012 31.1916 53.4791 29.8224L54.1486 28.7237C59.2537 26.4894 66.3606 24.5678 71.8656 23.4191C73.012 23.1798 75.3687 23.1226 76.2698 22.6955ZM44.0701 109.374C43.5577 109.438 43.1538 109.355 43.1173 110.038C43.0863 110.619 43.241 111.313 43.3397 111.89C43.2514 112.732 42.7895 114.161 43.3535 114.765C43.8721 114.506 47.8452 110.007 48.5422 109.293C48.9909 108.834 50.0924 107.033 50.8319 106.402C52.5033 104.975 55.7153 103.943 57.094 102.378C59.2458 99.9363 61.3252 96.8926 63.3019 94.2457C63.4367 94.4232 63.5873 94.5884 63.7517 94.739C64.9686 95.8754 65.9637 95.7289 67.5155 95.6692C67.5903 94.926 67.2273 91.0568 67.7517 90.9177C69.6615 90.5363 74.0295 90.1527 75.765 90.5037C78.0199 90.9597 78.4972 98.4387 80.2235 98.9671C83.4195 96.4876 80.071 93.2728 79.5535 90.7668C79.3111 89.5931 81.0112 86.4439 81.9261 85.6591C83.609 84.2152 84.5646 84.937 85.8176 86.3267C85.4943 87.1709 85.5518 87.9563 85.2657 88.3183L85.1192 88.2783C84.9965 87.7257 84.9593 87.225 84.5301 86.8753L84.2192 86.8793C83.4151 87.7437 83.2349 90.984 84.1539 91.9176C84.6839 92.0601 84.5397 92.0079 85.1555 91.7156L85.4758 91.8746C85.5542 92.6678 85.4997 93.1229 85.5315 93.866L85.252 94.1399C85.4861 95.1908 87.7182 95.679 88.6798 95.8252C91.9729 89.4151 91.728 88.6176 100.095 89.5882C100.18 89.598 100.368 89.7698 100.432 89.8399C100.896 91.5955 98.3123 97.6395 97.4305 99.5041C95.2367 104.143 92.7359 103.282 89.4054 105.322C88.8128 105.97 87.7299 105.942 86.6994 106.323C87.4668 106.354 89.3077 106.57 89.8598 106.038L89.9058 106.685L90.3355 106.631C90.5937 106.788 90.8676 106.991 91.1588 107.035L91.9288 107.281L91.7415 107.796C91.2115 107.756 90.7051 107.644 90.2745 107.923C89.6068 108.689 89.5068 109.432 90.0129 110.321C90.8821 110.921 93.4227 110.097 94.4891 110.062C94.7801 110.478 94.9051 110.734 95.3814 110.935C95.221 111.167 95.0626 111.528 94.7613 111.534C92.3026 111.585 90.4325 112.447 88.7636 114.22C87.3729 115.697 85.1917 117.42 88.7133 118.028C89.0633 117.044 89.1549 116.835 89.7301 115.956C91.9014 115.169 92.9263 114.917 95.2655 114.817C96.1816 114.777 97.6154 114.742 98.4705 114.579C98.7067 113.939 98.5616 114.057 99.0509 113.693C99.3977 113.649 99.8048 113.585 100.149 113.572C100.656 113.584 100.838 113.562 101.306 113.796L101.395 114.066C100.808 114.811 100.328 114.946 100.069 115.833C98.0935 116.154 96.7147 116.151 94.7083 116.08C92.8949 115.895 92.9196 116.335 91.2726 116.797C89.3786 117.486 87.2665 122.5 86.1601 122.979C85.3534 122.004 86.1248 119.121 85.4153 117.928C85.2873 117.712 84.5689 117.403 84.349 117.322C84.0644 117.78 84.2483 121.754 84.2635 122.571C83.5821 123.853 83.0436 123.962 81.7975 123.065C80.7644 122.231 79.688 120.67 79.5834 119.354C79.3075 115.879 81.1949 115.582 84.0829 115.705C84.3966 115.719 84.505 115.65 84.6782 115.434C84.386 114.898 83.4328 114.868 82.762 114.002C79.7601 113.353 78.4591 112.46 75.7699 111.561C72.9159 110.606 68.8076 110.875 65.7169 110.593L65.4861 110.414L65.4872 110.236C66.9185 109.815 68.1694 109.65 69.6516 109.701C70.7392 110.371 74.8288 109.828 76.1569 109.802C77.0969 109.786 77.0678 110.285 77.7248 110.029C78.6446 107.022 70.7239 107.792 68.9597 107.541C69.5256 106.935 71.3776 107.092 72.2116 107.085C73.244 107.1 75.0792 107.224 75.9349 106.677C76.2698 106.68 76.4986 106.348 77.249 106.236L77.5823 106.183C77.5796 105.871 77.4665 105.714 77.2097 105.493C75.1113 103.691 70.4935 103.833 69.0835 101.342C68.6237 100.529 67.6963 97.5767 67.3432 96.5241C65.4484 100.433 56.0529 107.959 52.4853 111.188C50.874 112.647 50.1861 113.948 48.9108 115.379C47.8672 115.6 46.8273 115.84 45.792 116.097L44.9681 117.391C49.3419 120.213 51.6175 122.573 56.9053 123.74C57.5637 124.476 58.5288 125.884 59.1368 126.504C59.7759 127.156 61.7458 127.757 62.6229 128.182C66.9533 130.281 72.1778 130.097 76.8895 130.846C77.6611 130.969 80.7652 130.977 81.5021 130.694C79.7142 127.388 81.8435 127.535 77.5826 125.965C73.1352 124.327 68.8955 125.241 64.6484 124.505C64.2719 124.373 63.9798 124.289 63.5979 124.187L63.5084 123.939C64.2265 123.956 64.8012 123.984 65.5215 123.887C65.516 123.885 70.9194 123.577 71.4317 123.544C74.7123 123.656 77.0362 124.434 80.1265 125.399C80.5189 125.522 80.8463 124.685 81.2983 124.713C82.6616 124.69 85.3409 124.495 86.5481 124.751C87.2901 126.195 87.5157 126.538 87.8468 128.137C88.5632 128.84 88.4437 129.137 88.2754 130.085L88.0813 130.119L88.136 130.264C89.4246 130.62 90.7635 130.367 92.0516 130.327C97.7962 130.145 102.886 127.985 107.587 124.797C108.866 123.929 110.437 123.022 111.556 121.943C114.01 119.578 116.25 117.429 119.042 115.411C117.396 114.056 115.993 112.164 114.472 110.656C113.773 109.901 112.199 109.278 111.656 108.458C110.933 107.365 110.415 105.633 109.969 104.38C106.381 103.27 104.953 102.334 101.916 100.044C101.527 99.751 100.76 99.1856 100.753 98.6877C100.734 97.2528 102.379 93.5941 103.188 92.5324C104.547 94.1313 105.825 95.5664 107.284 97.0722C111.115 101.028 115.794 107.256 120.786 109.826C120.966 110.651 121.46 112.937 122.748 112.324C123.163 111.203 122.184 110.92 122.158 110.019C122.207 109.293 122.032 107.685 122.542 107.176C122.826 107.347 122.871 107.379 123.186 107.474L123.316 107.316L123.241 107.1L122.752 106.871C122.724 106.62 122.773 105.999 122.789 105.709C122.996 102.013 122.487 98.459 122.109 94.7969C121.849 92.1539 121.64 89.5064 121.482 86.8554C121.447 86.2984 121.371 82.3961 121.292 82.3085C121.135 82.5681 121.087 82.6276 120.885 82.8543C119.701 83.3841 117.888 82.3846 116.875 83.3552C116.704 83.7841 116.679 83.96 116.313 84.2409C116.206 83.7964 116.133 83.417 115.933 83.0008L115.2 82.7592C115.368 81.8638 116.769 82.5235 117.276 82.0989C117.666 80.8456 118.34 79.1406 119.773 78.7353C120.269 78.5953 121.106 78.5127 121.571 78.7777C121.587 78.9986 121.6 79.2197 121.611 79.4411C121.977 79.8279 122.055 79.8843 122.568 80.0207L122.69 80.052C122.999 80.3934 123.016 81.3079 123.071 81.8225C122.882 83.3249 122.759 86.828 123.125 88.2416L123.271 88.2791C123.309 88.1897 123.492 87.7406 123.531 87.6902L124.042 87.6043C124.391 87.5464 124.268 87.5868 124.556 87.2742C124.721 86.6414 124.715 86.5615 124.544 85.9293L124.197 85.7477C123.846 85.595 123.801 85.4975 123.542 85.1978L123.634 84.8983L124.057 84.7635L124.522 84.6811C125.949 83.2519 125.891 82.8019 126.403 80.781C127.154 80.981 127.014 81.2729 127.032 82.0128C126.842 82.2424 126.637 84.6542 126.605 85.1715C126.617 86.4159 123.681 90.6643 123.722 91.2569C124.02 95.5431 124.864 103.74 127.208 107.165C128.122 105.233 129.393 103.308 130.202 101.285C131.184 98.8307 133.312 93.1361 133.664 90.6102C134.264 86.3137 134.568 81.3327 135.057 76.9389L135.28 76.3983C136.416 75.8915 136.063 74.2594 136.003 73.1859L135.899 73.1384C135.754 73.5377 135.774 73.7215 135.473 73.8902C135.338 73.7899 135.135 73.3697 135.04 73.1987C134.544 70.4448 134.338 67.5243 133.684 64.8669C133.518 64.1925 132.399 62.9406 132.088 62.2455C130.989 59.7906 129.665 55.8115 128.037 53.7894C127.216 52.7683 124.702 51.615 123.718 50.2564C123.066 49.3549 122.631 47.4826 122.17 46.9123C120.206 44.4835 118.139 41.5157 115.88 39.3959C114.827 38.4079 113.353 37.4405 112.231 36.4422C111.097 35.5332 109.991 34.1831 108.686 33.5432C106.213 32.3296 103.11 32.4014 100.593 31.341C97.6627 30.1068 95.3536 28.3908 92.1552 27.5172C89.039 26.6662 85.5293 26.3606 82.2846 26.2394C76.4621 26.5966 68.7623 27.4202 63.2053 29.0486C59.609 30.1024 54.3733 33.6506 51.6314 36.1396C50.145 37.4891 46.6919 39.8253 45.6215 41.0134C41.618 45.4571 38.7317 50.9753 36.0238 56.2689C35.2759 57.7308 34.2202 59.2505 33.5574 60.7138C32.4632 63.129 30.8314 65.762 30.3493 68.3531C30.0595 69.9114 29.8015 72.9762 29.9283 74.5298C30.3492 79.682 30.947 85.0171 31.8877 90.1013C32.2115 91.8524 32.5871 94.6259 33.1171 96.2729C33.7175 98.1381 35.4335 100.545 36.2922 102.32C37.6683 105.164 38.3095 107.712 40.3607 110.249C41.4465 109.826 41.7645 103.591 41.8149 102.25C41.9026 102.1 42.2468 101.322 42.2547 101.176L42.324 101.179C42.4148 101.68 42.483 101.733 42.8471 102.097L43.0505 102.032C43.1457 101.293 43.1317 101.117 43.038 100.372C42.9269 98.3283 43.1079 95.6634 43.0364 93.4789C43.0967 92.5582 43.0858 92.0046 43.4563 91.1432L43.6631 91.001C44.5444 92.9836 43.228 106.42 44.0701 109.374ZM41.3808 110.998C41.262 111.512 41.0788 112.006 41.2255 112.487L41.4406 112.699C41.6351 112.098 41.6677 112.006 41.6382 111.373C41.5515 111.223 41.5064 111.109 41.3808 110.998ZM84.1047 98.4792C84.0273 99.101 84.9373 101.557 85.3789 101.947C85.5847 100.849 85.2719 98.8883 84.1047 98.4792ZM82.3657 131.066C84.127 131.673 85.6353 131.232 87.3708 131.432C86.6472 130.738 83.3643 130.9 82.3657 131.066ZM122.457 136.114C123.107 136.441 124.975 136.666 125.629 136.513C124.895 135.833 123.382 135.889 122.457 136.114ZM79.9882 104.315C79.8535 105.118 79.6533 106.133 79.5994 106.928C80.5195 106.662 80.9076 106.522 81.8903 106.541L81.8693 104.496C81.2238 104.493 80.5964 104.53 79.9882 104.315ZM95.2476 95.1589L94.1879 95.2846L94.1025 95.4413L94.4588 95.6795C94.9258 95.632 95.3309 95.6365 95.7048 95.3496C95.4271 95.1402 95.5771 95.1951 95.2476 95.1589ZM96.4284 138.999C96.5768 138.105 96.7801 136.991 96.0256 136.335C95.869 137.1 95.7524 138.456 96.4284 138.999ZM86.8142 110.669L87.3986 110.567C87.6848 109.783 86.55 108.967 86.2754 108.234C85.6176 106.477 86.395 105.31 84.4217 104.394C83.9701 104.707 83.6388 104.819 83.445 105.256C84.0829 106.375 84.3578 109.207 84.5698 110.618L86.8142 110.669Z" fill="white"/>
<path d="M79.0349 33.2421C80.9569 32.491 83.8731 30.6791 85.6045 31.4834C86.9808 32.123 86.7405 32.5356 87.5872 33.3029C87.6935 34.8794 87.6119 36.6111 87.89 38.1439C88.0338 38.9371 89.3975 39.8185 89.8777 40.5074C92.2741 43.9819 93.4531 48.2902 93.6583 52.4744C93.7435 54.2146 93.7595 55.9985 94.2113 57.657C94.5766 56.7775 94.9164 55.8878 95.2302 54.9889C95.286 55.1365 95.9229 56.821 95.9652 56.8615C96.4464 57.3205 96.9663 57.1434 97.4124 57.7576C97.719 60.4502 96.4637 66.3379 95.9933 69.1746C95.8364 70.1208 94.3127 73.389 93.1677 73.3928C92.4404 73.3952 90.9196 72.7693 90.0202 72.6151C89.5565 70.9348 89.6878 69.9035 89.5458 68.1919C89.6524 67.6795 89.0114 65.3653 88.856 64.7013C88.3866 63.305 88.0232 64.0368 87.6707 62.6204C86.5685 58.2338 86.9231 54.8137 86.6432 50.3842C86.5802 49.3877 84.9574 47.8398 84.1275 47.2792C82.4595 46.1524 82.0466 47.5239 81.3398 48.7487C80.8535 50.5519 79.3508 52.4527 79.4092 54.0762C79.476 55.9327 78.4704 58.7097 78.4956 60.2637L78.6748 60.4974C79.7391 60.0294 79.7239 58.302 79.8887 57.2509C80.2858 54.7209 80.5758 51.9618 81.9625 49.7406L82.2907 49.6785C84.1107 49.2094 83.3246 49.5927 84.6212 50.513C84.9944 52.0512 85.1094 52.8335 85.3035 54.3656C85.6821 57.3545 85.3189 61.504 87.3827 63.9212C87.8875 64.3762 87.6908 65.1392 87.9829 65.9851C87.9065 67.6032 87.8044 68.3032 88.7921 69.5402C88.8549 70.1748 88.8807 72.1925 89.0041 72.6135L89.0503 72.7548C89.6991 74.679 91.6181 74.6247 92.0835 75.4574C92.8511 76.8306 90.6832 82.4143 90.0738 83.6803C89.8343 84.1802 89.5855 84.6755 89.3271 85.166C89.1824 84.4699 88.9957 83.4131 88.7916 82.7618C87.5948 82.9342 85.3724 83.1887 84.3605 82.4895C82.5253 81.221 85.8952 76.875 84.1857 75.7345C83.4814 75.2647 81.806 74.4013 81.0161 73.9631C81.2157 74.8233 81.4337 76.0853 81.7047 76.8788C82.5345 79.3082 82.9808 80.3001 82.9177 82.9344C81.2479 83.0272 79.8468 82.8076 78.1979 82.5665L78.0083 82.8814L77.8995 83.2663C76.8813 83.5221 77.4026 82.7453 75.8375 82.882C74.2338 81.0062 75.4965 81.5517 74.8076 79.6876C74.553 78.9987 73.1121 78.6107 72.7639 77.4512C72.8515 76.7814 73.2355 76.2177 73.5731 75.6282C73.3723 75.2973 71.7024 75.3559 71.3989 75.0777C70.2344 74.01 69.1505 71.9318 68.8223 70.4643C68.9433 69.5474 68.8458 67.5149 69.2863 67.0061C69.7359 67.0563 69.6878 67.162 70.0526 67.5954C70.7528 67.9378 70.463 68.757 71.416 68.8161C72.1898 68.4208 74.8838 65.6628 73.977 64.9204C73.2573 64.9753 72.1567 65.7987 71.9068 65.7888C68.1448 65.6386 70.4076 57.3423 70.597 55.3429C70.8693 52.47 70.4749 50.5892 71.2475 48.1542C71.9958 45.7951 73.7234 44.404 74.9447 42.3733C76.0696 40.2848 75.7364 39.3476 77.3342 37.0129L77.4244 36.6838C77.7274 36.2752 78.4466 34.2641 79.0349 33.2421ZM73.1986 61.1066C76.7954 58.1438 76.8392 53.7411 76.0548 49.5021C75.9338 48.8476 75.9693 48.2904 75.5715 47.7204C75.148 47.4782 74.3243 47.5264 73.8017 47.5193C72.828 51.2722 72.8319 56.1888 71.8803 60.084C71.7723 60.5266 71.7455 61.9998 72.2024 62.2615L72.5847 62.0286L72.5334 62.1238C72.8405 61.7528 73.027 61.5681 73.1986 61.1066ZM74.6454 74.7233C74.9988 73.6698 75.3684 73.4238 75.9261 72.4779C76.5399 70.5518 76.8133 69.81 76.8353 67.8169C76.2217 68.887 75.5432 70.8573 75.0771 72.0606C74.7968 72.4727 74.6358 72.729 74.2861 73.0889C74.0256 73.7842 73.9488 73.9421 73.9993 74.6724L74.1687 74.974C74.5052 74.879 74.4342 74.9491 74.6454 74.7233ZM80.99 34.5147C80.36 35.2103 79.3694 39.0184 79.8762 39.8878C80.2396 39.9933 80.1012 40.0056 80.4379 39.8995C80.9998 39.6319 81.4551 39.4774 81.6351 38.8498C81.9938 37.6005 82.6435 34.9858 80.99 34.5147ZM91.4882 58.5893C91.8658 56.3893 91.6227 48.9626 89.3165 47.9737C89.1626 51.1006 87.8433 57.2279 91.4882 58.5893ZM94.2066 61.4488C93.3127 62.8831 93.133 64.1919 94.5296 65.2809C94.759 64.086 95.4372 62.1776 94.2066 61.4488ZM85.8307 39.5302C86.2955 38.2042 86.6356 36.6277 85.0606 35.9744C84.9887 36.7814 84.6638 39.1258 85.2157 39.6875C85.507 39.6587 85.5583 39.6658 85.8307 39.5302Z" fill="white"/>
<path d="M85.0607 35.9744C86.6358 36.6277 86.2957 38.2042 85.8309 39.5302C85.5585 39.6658 85.5072 39.6587 85.2159 39.6875C84.664 39.1258 84.9889 36.7814 85.0607 35.9744Z" fill="white"/>
<path d="M75.0781 72.0606C75.5442 70.8573 76.2227 68.887 76.8362 67.8169C76.8142 69.81 76.5409 70.5518 75.927 72.4779C75.7339 72.6143 75.548 72.7274 75.3483 72.8525L75.1526 72.7196L75.0781 72.0606Z" fill="white"/>
<path d="M74.2871 73.0889C74.6367 72.729 74.7978 72.4727 75.0781 72.0606L75.1526 72.7196L75.3483 72.8525C75.548 72.7274 75.7339 72.6143 75.927 72.4779C75.3694 73.4238 74.9998 73.6698 74.6464 74.7233C74.6997 74.0019 74.8627 73.5423 74.2871 73.0889Z" fill="white"/>
<path d="M74.2868 73.0889C74.8623 73.5423 74.6994 74.0019 74.6461 74.7233C74.4349 74.949 74.5059 74.879 74.1694 74.974L74 74.6723C73.9495 73.9421 74.0262 73.7842 74.2868 73.0889Z" fill="white"/>
<path d="M63.3572 112.723C66.6768 113.559 73.8489 112.892 76.2721 113.963L76.0383 114.38C75.0839 114.543 74.7744 114.414 74.4675 115.43C72.3458 114.705 66.6203 115.143 63.5608 114.555C63.6366 114.307 63.6996 114.075 63.7654 113.825C63.523 113.431 63.1213 113.313 62.6836 113.107L62.7586 112.905L63.3572 112.723Z" fill="white"/>
<path d="M39.591 78.8563C40.1186 80.9731 40.0894 83.2432 41.7545 84.7369C42.6114 84.9321 43.5463 85.1098 44.2754 85.6208L44.2699 85.9222C45.1228 86.2035 44.9914 85.8836 45.7842 86.4841C45.873 86.8325 45.8916 86.6681 45.714 86.9913C45.4956 87.1003 45.1633 87.2973 44.9396 87.3023C43.6538 86.5015 43.4694 87.8048 42.0849 87.5588C39.333 87.0696 39.9136 83.1789 38.4512 81.3705C38.7758 80.0524 38.2109 79.4104 39.591 78.8563Z" fill="white"/>
<path d="M77.6318 29.9526C77.8204 30.4655 77.8244 30.6607 77.8782 31.1988C78.4452 32.9507 77.9897 33.0347 76.6298 34.0686C76.5874 34.7155 76.4551 35.5108 76.7451 36.064L77.4257 36.6838L77.3355 37.0129C76.7094 37.0164 75.3972 36.921 74.9139 37.1603C74.2898 38.222 75.3718 39.1735 74.4043 39.7955C73.7589 39.3535 74.2939 39.1206 74.0511 38.3149C74.1917 37.6217 74.3401 35.7262 73.6094 35.4117C73.6143 34.0618 76.6208 30.9531 77.6318 29.9526Z" fill="white"/>
<path d="M107.364 111.807C107.602 111.963 107.614 112.062 107.723 112.324C107.406 113.112 106.547 113.319 106.413 113.661C105.629 115.724 103.931 117.033 102.459 118.584C101.684 119.401 100.711 119.82 100.039 120.579L99.938 120.695C97.5332 121.295 97.1404 120.399 94.2896 120.25C93.9692 120.266 93.7018 120.186 93.3884 120.116L93.3408 119.981C94.2252 119.792 95.8491 119.793 96.8561 119.758C100.085 119.649 102.883 117.177 104.794 114.771C105.083 114.407 105.602 113.192 105.777 113.036C106.502 112.39 106.554 112.739 107.364 111.807Z" fill="white"/>
<path d="M69.6191 118.059C72.1447 117.769 74.8084 117.605 76.9854 119.257C77.9332 119.977 77.4367 120.404 78.816 121.152L78.8721 121.424C77.8035 122.14 76.1955 120.282 75.3145 119.941C73.8555 119.377 71.3268 119.555 69.7606 119.575L69.6998 118.802L69.9691 118.821C70.5636 119.124 72.1434 119.105 72.7508 118.743C72.4689 118.476 72.3111 118.551 71.8443 118.514C71.1279 118.46 70.5075 118.402 69.7963 118.303L69.6191 118.059Z" fill="white"/>
<path d="M122.2 70.1269L122.469 70.0718C122.65 70.872 122.753 77.7875 122.634 78.5496L122.387 78.8883L122.117 78.832C122.013 78.5293 121.95 78.3276 121.879 78.0158C121.516 77.9351 121.444 77.9337 121.07 77.9313C120.666 77.436 121.019 71.3461 121.19 70.5442L121.584 70.6741C121.46 72.1909 121.682 73.9617 121.877 75.4637C122.124 73.6371 122.177 71.9568 122.2 70.1269Z" fill="white"/>
<path d="M81.3407 48.7487C82.0196 49.6861 82.0058 48.6127 82.2917 49.6785L81.9634 49.7407C80.5768 51.9618 80.2868 54.7209 79.8897 57.2509C79.7248 58.302 79.74 60.0294 78.6758 60.4974L78.4966 60.2637C78.4714 58.7097 79.4769 55.9327 79.4102 54.0762C79.3518 52.4527 80.8544 50.5519 81.3407 48.7487Z" fill="white"/>
<path d="M82.2279 28.0717C82.9559 28.0247 85.2472 27.9035 85.7402 28.378C85.8688 29.1125 85.6576 30.1274 85.3586 30.8123C85.1391 30.4055 85.0388 30.1635 84.6294 29.9067C84.1513 29.9197 81.9189 29.8711 81.5123 30.1583C81.4138 30.2277 81.5479 30.4581 81.1504 30.7514C80.4018 30.2438 80.6588 28.9904 80.9265 28.2858C81.2893 27.9689 81.6272 28.0831 82.2279 28.0717ZM84.9063 29.306C84.5699 28.3248 83.7968 28.6768 82.7927 28.6971L82.8629 29.0094C83.3999 29.2453 84.2948 29.2601 84.9063 29.306Z" fill="white"/>
<path d="M82.793 28.6971C83.7971 28.6769 84.5702 28.3249 84.9066 29.306C84.2951 29.2602 83.4002 29.2453 82.8632 29.0094L82.793 28.6971Z" fill="white"/>
<path d="M91.7582 120.92C92.726 120.831 96.2164 120.963 97.0704 121.253C95.8684 121.943 93.373 121.183 91.5618 122.619C89.5842 123.041 89.0767 124.634 87.8832 124.513L87.7559 124.276C87.9966 122.71 90.3861 121.38 91.7582 120.92Z" fill="white"/>
<path d="M118.082 65.7864L118.282 65.8807C118.821 66.6446 117.81 73.9588 117.659 75.2547C117.612 75.6548 117.432 75.9269 117.121 76.1845C116.501 74.9346 117.254 68.3922 117.538 66.7567C117.34 66.5719 117.205 66.4852 117.127 66.2264L118.082 65.7864Z" fill="white"/>
<path d="M50.2447 71.0074C50.7011 71.0992 51.1486 71.0963 51.6145 71.1129C50.7526 75.2197 50.7519 77.3873 50.7102 81.5944C50.6093 81.9935 50.6968 81.8894 50.4187 82.1084C49.765 80.8391 50.0683 72.9117 50.2447 71.0074Z" fill="white"/>
<path d="M127.173 66.2226L127.476 65.4225L127.6 65.417C127.653 66.065 127.718 66.6016 127.813 67.245C127.779 68.0574 127.667 72.0963 127.543 72.5135L127.329 72.626L127.027 72.433C126.669 73.0446 126.556 73.891 126.194 74.5221C125.799 73.9623 125.84 72.956 125.834 72.2741C125.977 70.3132 127.213 69.8595 127.173 66.2226Z" fill="white"/>
<path d="M69.0309 118.544L69.7002 118.802L69.761 119.575L66.3751 119.758C65.3482 119.701 63.8709 119.77 62.7238 119.734L62.2435 119.652C61.9477 119.243 61.923 119.34 61.8936 118.914C62.2079 118.64 62.6227 118.682 63.0682 118.655C65.0383 118.782 67.0347 118.548 69.0309 118.544Z" fill="white"/>
<path d="M122.194 56.7002C122.314 56.7657 122.565 56.8713 122.594 56.9628C123.001 58.2381 122.671 65.0129 122.37 65.9031L122.033 65.4758C121.654 62.9639 121.528 59.1257 122.194 56.7002Z" fill="white"/>
<path d="M114.246 72.0405L114.45 72.137C114.625 73.6167 114.522 76.9329 114.818 78.0853C114.811 78.4438 114.668 79.3276 114.42 79.6116C114.047 79.323 113.839 79.0223 113.553 78.6543C113.264 78.7929 113.22 78.8173 112.908 78.8815L112.771 78.6333C112.875 78.0147 112.879 77.8912 113.228 77.3724L113.288 77.6012L113.515 77.4107L113.516 76.9259C113.66 76.0815 113.944 75.4801 113.889 74.6005C113.975 73.719 114.107 72.9128 114.246 72.0405Z" fill="white"/>
<path d="M62.2435 119.652C60.7367 119.226 58.5409 117.033 58.3271 115.485C58.4191 115.108 58.4061 115.007 58.6888 114.777C59.7772 115.987 61.4613 118.067 62.9453 118.611L63.0682 118.655C62.6227 118.682 62.2079 118.64 61.8935 118.914C61.9229 119.34 61.9476 119.243 62.2435 119.652Z" fill="white"/>
<path d="M46.4519 74.392C47.0637 76.2466 47.952 79.8877 47.453 81.7668L47.2692 81.8235C46.6381 80.8856 46.2317 78.2044 46.0078 76.9839C46.235 76.1683 45.9931 75.6008 46.4519 74.392Z" fill="white"/>
<path d="M68.823 70.4643C68.3916 69.174 67.1204 65.5157 68.2612 64.4608C69.2932 64.6894 70.1209 66.5616 70.0534 67.5954C69.6885 67.162 69.7366 67.0563 69.287 67.0061C68.8466 67.5149 68.944 69.5474 68.823 70.4643Z" fill="white"/>
<path d="M52.8174 79.8038C52.8898 79.2667 54.2032 74.0144 54.351 73.7723C54.9848 74.7997 53.8299 80.0832 53.6043 81.4833L53.5128 81.5854L53.3489 81.577L53.2276 80.8458L53.0007 80.7016L52.8174 79.8038Z" fill="white"/>
<path d="M86.7712 28.6666C88.0028 28.9605 87.2498 29.2109 87.6737 30.0126C87.8892 29.4698 87.9462 29.0611 88.5095 28.8771C88.8886 30.0274 88.7559 30.0768 89.5872 30.7011C89.69 30.951 89.7174 31.1502 89.7687 31.4127L89.5897 31.621C89.2678 31.7305 89.0873 31.77 88.7532 31.7384C88.0435 31.6753 87.3926 31.3174 86.9591 30.752C86.4913 30.1398 86.6638 29.3864 86.7712 28.6666Z" fill="white"/>
<path d="M76.2724 113.963C76.5062 114.98 76.8554 114.836 77.5858 115.529C78.0585 115.978 78.7329 117.273 78.3866 117.875C76.264 117.848 77.7521 115.628 74.4678 115.43C74.7747 114.414 75.0841 114.543 76.0386 114.38L76.2724 113.963Z" fill="white"/>
<path d="M44.4355 65.0843C46.3725 65.9777 45.2272 69.3852 44.9731 70.7219L44.6225 70.8769L44.3914 70.6951C44.2873 69.3314 44.1965 66.42 44.4355 65.0843Z" fill="white"/>
<path d="M44.2751 85.6208C45.2097 85.1225 46.4705 84.1861 47.2763 85.5194C47.3806 86.3145 46.9664 86.9552 46.5845 87.6403C46.2613 87.8442 46.1224 87.7959 45.7185 87.7792C45.5187 87.732 45.1851 87.5287 44.9887 87.42L44.9392 87.3023C45.1629 87.2973 45.4953 87.1003 45.7136 86.9913C45.8913 86.6681 45.8726 86.8325 45.7839 86.4841C44.9911 85.8836 45.1224 86.2035 44.2695 85.9222L44.2751 85.6208Z" fill="white"/>
<path d="M38.4507 81.3705C38.0901 80.9997 36.8302 77.6951 37.5467 77.0808C38.3115 77.0897 39.4426 78.0777 39.5905 78.8564C38.2104 79.4104 38.7753 80.0524 38.4507 81.3705Z" fill="white"/>
<path d="M43.0451 77.5983C43.3452 78.9932 43.8388 80.2682 43.9949 81.704C44.0508 82.2188 44.2125 82.3131 44.6312 82.6145L44.6553 82.8774L44.4763 83.0253C42.8768 82.7331 43.1498 82.6203 42.8208 81.0535C42.6407 80.1963 42.3061 80.536 41.8643 79.566C42.062 79.6757 42.0976 79.6787 42.3109 79.756C43.1043 79.1166 43.0013 78.5372 43.0451 77.5983Z" fill="white"/>
<path d="M59.8906 110.11C60.1531 110.209 61.2216 110.606 61.3394 110.745C62.3581 111.952 61.7796 112.142 63.3573 112.723L62.7587 112.905L62.6837 113.107C63.1214 113.313 63.5231 113.431 63.7655 113.825C63.6997 114.075 63.6367 114.307 63.5609 114.555C62.995 113.526 60.8685 113.016 60.5858 111.38C60.5657 111.265 59.9938 110.289 59.8906 110.11Z" fill="white"/>
<path d="M41.9343 75.7961L42.2213 75.8413L42.5761 75.5308C43.0858 75.7821 43.0091 77.0316 43.0444 77.5983C43.0006 78.5372 43.1036 79.1166 42.3102 79.756C42.0969 79.6787 42.0613 79.6757 41.8636 79.566C41.7954 79.0465 41.6283 78.5078 41.4893 77.9998C42.3663 77.317 41.6501 77.1944 41.9343 75.7961Z" fill="white"/>
<path d="M88.8574 64.7013C89.0127 65.3653 89.6537 67.6795 89.5471 68.1919C88.8638 69.0973 89.2904 71.2265 89.0054 72.6135C88.882 72.1925 88.8562 70.1748 88.7934 69.5402C87.8058 68.3033 87.9078 67.6032 87.9842 65.9851C88.064 66.5217 88.0605 67.0421 88.4188 67.402L88.6106 67.2938C88.9138 66.2781 88.8689 65.7462 88.8574 64.7013Z" fill="white"/>
<path d="M39.3605 66.6317C40.7945 66.9245 40.2388 70.1006 39.7994 70.9669C39.5434 70.9081 39.4567 70.8358 39.2381 70.7003C38.6983 69.3833 38.9601 67.953 39.3605 66.6317Z" fill="white"/>
<path d="M113.12 75.7285C112.794 74.5273 112.534 70.1998 113.136 69.006L113.296 69.1072C113.686 70.0174 113.6 70.6746 113.577 71.6591C113.428 72.7592 113.382 74.953 113.12 75.7285Z" fill="white"/>
<path d="M41.4897 77.9998C41.1273 77.044 40.4322 73.3892 41.383 72.8424C41.9814 73.508 41.9131 74.9092 41.9348 75.7961C41.6506 77.1944 42.3668 77.317 41.4897 77.9998Z" fill="white"/>
<path d="M124.774 74.0225L125.22 73.7339C125.585 74.0917 125.536 74.407 125.54 74.9959C125.541 75.1433 125.541 75.2908 125.54 75.4384C125.008 76.4909 124.67 77.4366 124.258 78.538L124.094 78.6032C123.212 76.5333 124.629 76.0002 124.77 74.0891L124.774 74.0225Z" fill="white"/>
<path d="M49.1299 62.1707C49.2163 62.0379 49.3582 61.8868 49.4648 61.7633L49.9579 61.8258L50.8891 64.2211C50.8893 65.2745 50.9654 65.6733 50.3662 66.5651C50.0484 65.1572 49.5346 63.5818 49.1299 62.1707Z" fill="white"/>
<path d="M113.079 59.8862C114.099 60.8408 113.522 64.2222 113.05 65.3923L112.77 65.1033C112.471 63.8951 112.614 61.0128 113.079 59.8862Z" fill="white"/>
<path d="M110.886 79.361L110.869 79.2397C110.703 78.1115 109.814 76.293 110.268 75.3855C111.397 75.5581 111.573 78.865 111.528 79.8241C111.449 80.0894 111.36 80.3202 111.263 80.5793C111.119 80.1728 111.006 79.7742 110.886 79.361Z" fill="white"/>
<path d="M73.6082 35.4117C74.3389 35.7262 74.1905 37.6217 74.0499 38.3149C73.2736 38.6492 73.742 39.1069 73.0847 39.4544C72.0733 38.3951 73.3474 36.3306 73.6082 35.4117Z" fill="white"/>
<path d="M118.577 60.6087C118.432 61.3377 118.169 62.4961 117.622 63.0291C117.172 62.3361 117.799 58.226 118.104 57.3986C118.209 58.1661 118.586 59.9958 118.577 60.6087Z" fill="white"/>
<path d="M87.6709 62.6204C88.0234 64.0368 88.3868 63.305 88.8562 64.7013C88.8677 65.7462 88.9126 66.2781 88.6094 67.2938L88.4176 67.402C88.0593 67.0421 88.0628 66.5217 87.983 65.9851C87.691 65.1392 87.8876 64.3762 87.3828 63.9212C87.5784 63.566 87.6113 63.0389 87.6709 62.6204Z" fill="white"/>
<path d="M125.935 62.0734C126.089 62.1151 126.382 62.1548 126.421 62.2578C126.889 63.483 126.604 66.3714 126.54 67.6141C126.457 67.9065 126.395 68.0308 126.265 68.3072C125.921 67.8114 126.026 63.1928 125.935 62.0734Z" fill="white"/>
<path d="M90.1167 32.7379C90.6216 32.8246 91.0172 32.845 91.4161 33.1633L91.3607 33.4609C90.8383 33.958 90.7594 34.0733 90.636 34.7847C90.0682 34.8401 89.7187 34.9316 89.3007 34.6484C89.2488 33.9956 89.7325 33.3089 90.1167 32.7379Z" fill="white"/>
<path d="M49.1295 62.1707C48.6726 62.0764 48.3238 62.0594 47.9926 61.7492C48.3413 61.5233 48.6169 61.4099 48.9911 61.2434C48.3809 60.821 48.0311 60.8136 47.7598 60.2748L47.9968 59.9414C48.8536 59.8424 49.8458 61.0306 49.9575 61.8258L49.4644 61.7633C49.3578 61.8868 49.2159 62.0379 49.1295 62.1707Z" fill="white"/>
<path d="M125.934 62.0734C126.026 63.1928 125.921 67.8114 126.265 68.3072C126.395 68.0308 126.457 67.9065 126.539 67.6141C126.55 68.1014 126.321 69.9244 126.094 70.2944L125.913 70.1686C125.741 69.4706 125.661 62.8456 125.934 62.0734Z" fill="white"/>
<path d="M75.8379 82.882C77.403 82.7453 76.8817 83.5221 77.8999 83.2663L78.0088 82.8814C78.4378 83.3965 78.9931 84.1096 78.7025 84.7993C77.9558 84.8733 76.5998 83.4809 75.8379 82.882Z" fill="white"/>
<path d="M36.1463 73.9106C36.4182 73.9459 36.4238 73.9791 36.6343 74.1465C37.0272 75.4197 36.8873 76.1563 36.7313 77.4513L36.5749 77.449L36.3554 77.2145C36.0142 76.0756 36.0727 75.0713 36.1463 73.9106Z" fill="white"/>
<path d="M119.138 56.1768C118.785 57.0642 118.846 57.6769 119.082 58.6008L119.215 58.6182C118.823 59.4681 118.728 59.69 118.577 60.6087C118.585 59.9958 118.209 58.1661 118.104 57.3986C118.522 57.1374 118.843 56.5968 119.138 56.1768Z" fill="white"/>
<path d="M48.2848 53.9792C48.6097 54.1077 48.4998 54.0482 48.7349 54.35C48.8823 55.1099 48.8912 56.3088 48.6583 57.0468C48.3408 56.9642 48.3291 56.9411 48.0718 56.7258C47.8203 55.6976 48.0522 54.996 48.2848 53.9792Z" fill="white"/>
<path d="M50.8891 64.2211C51.2324 65.1401 51.9761 66.5394 51.7666 67.4834L51.4993 67.6214L51.1626 67.4393C50.9664 66.7207 51.2338 66.7394 51.0329 66.2822C50.8416 66.3322 50.7098 66.5167 50.5418 66.6782L50.3662 66.5651C50.9653 65.6733 50.8892 65.2745 50.8891 64.2211Z" fill="white"/>
<path d="M90.3708 36.1317C90.8081 36.1029 91.4021 36.0005 91.7366 36.3465L91.6877 36.6188C91.1985 37.0531 91.4271 36.9675 90.8362 36.9933L90.9307 37.1989C90.8201 37.672 90.6459 37.818 90.2507 38.0005L89.9712 37.8325C89.9272 37.4403 90.3254 36.7871 90.3708 36.1317Z" fill="white"/>
<path d="M45.6065 72.8671C45.7243 73.3716 45.8001 73.6646 45.8387 74.1849L46.1366 74.3944L46.3246 74.3099L46.4524 74.392C45.9936 75.6008 46.2355 76.1683 46.0083 76.9839C45.7115 76.555 45.8917 76.2488 45.291 75.5914C45.7191 74.5045 45.6188 74.0256 45.6065 72.8671Z" fill="white"/>
<path d="M114.246 72.0405C114.245 71.2966 114.145 71.495 114.507 70.9179L114.718 70.9282C114.814 71.7538 114.7 72.7136 114.722 73.5657C114.76 75.0835 114.85 76.5645 114.818 78.0853C114.522 76.9329 114.625 73.6167 114.45 72.137L114.246 72.0405Z" fill="white"/>
<path d="M52.278 80.9647C52.6819 81.3931 52.627 81.9312 52.6572 82.5362C52.6941 83.1305 52.6506 83.3968 52.5701 83.9888L52.3204 84.1313L52.3984 84.2628C51.7849 83.6923 52.1301 81.7031 52.278 80.9647Z" fill="white"/>
<path d="M113.577 71.659C113.669 72.8394 113.327 73.9544 113.889 74.6005C113.944 75.4801 113.66 76.0815 113.516 76.9259C113.445 76.3544 113.37 76.2379 113.12 75.7285C113.382 74.953 113.429 72.7592 113.577 71.659Z" fill="white"/>
<path d="M121.999 70.0902L122.199 70.1269C122.176 71.9568 122.124 73.6371 121.877 75.4637C121.681 73.9617 121.46 72.1909 121.584 70.6741C121.741 71.205 121.57 71.4542 121.87 72.2075C122.032 71.8274 121.993 70.5757 121.999 70.0902Z" fill="white"/>
<path d="M125.834 72.2741C125.84 72.956 125.799 73.9623 126.194 74.5221C125.907 74.8309 125.654 75.0405 125.54 75.4384C125.542 75.2908 125.542 75.1433 125.541 74.9959C125.536 74.407 125.586 74.0917 125.221 73.7339L124.774 74.0224C124.959 73.4118 125.425 73.2544 125.834 72.2741Z" fill="white"/>
<path d="M79.264 28.8909L79.6163 29.169C79.798 29.9238 79.6668 30.4701 79.3259 31.1488L78.8968 30.9218C78.7987 30.3973 79.0508 29.3816 79.264 28.8909Z" fill="white"/>
<path d="M69.0303 118.544C69.3128 118.347 68.9778 118.331 69.6189 118.059L69.7961 118.303C70.5073 118.402 71.1277 118.46 71.8441 118.514L71.9116 118.742C71.4002 118.978 70.5612 118.856 69.9689 118.821L69.6996 118.802L69.0303 118.544Z" fill="white"/>
<path d="M119.139 56.1768L119.442 56.1377C119.805 56.8476 119.46 57.8451 119.215 58.6182L119.082 58.6008C118.846 57.6769 118.786 57.0642 119.139 56.1768Z" fill="white"/>
<path d="M71.8504 41.7617L71.3372 41.6397L71.2783 41.4C71.6477 41.0338 71.7083 41.0119 72.2144 40.8835L72.6569 40.9925C72.8933 41.5122 72.8104 41.3948 72.6705 42.0597C72.5577 42.0382 71.995 41.8159 71.8504 41.7617Z" fill="white"/>
<path d="M121.191 70.5442C121.097 70.237 121.12 70.2338 121.203 69.934C121.623 69.8263 121.5 69.8668 122 70.0902C121.994 70.5757 122.032 71.8274 121.87 72.2075C121.57 71.4542 121.742 71.205 121.584 70.6741L121.191 70.5442Z" fill="white"/>
<path d="M52.2777 80.9647C52.2364 81.1047 52.7629 79.947 52.8176 79.8038L53.001 80.7016C53.0233 81.0225 53.1095 81.7608 53.0236 82.0294L52.6569 82.5362C52.6267 81.9312 52.6816 81.3931 52.2777 80.9647Z" fill="white"/>
<path d="M34.1758 68.1251C34.7414 68.0153 35.0244 67.9402 35.6036 67.9767C36.0119 68.2626 35.8814 68.1012 36.0332 68.7095C35.1212 68.8601 34.7425 68.8714 34.1758 68.1251Z" fill="white"/>
<path d="M71.8496 41.7617C71.9942 41.8159 72.5569 42.0382 72.6697 42.0597C72.5318 42.8058 72.5582 42.6785 71.9664 43.0268C71.374 43.0254 71.6014 43.0972 71.1119 42.7476L71.0811 42.5193L71.9603 42.3322L72.0651 42.1124L71.8496 41.7617Z" fill="white"/>
<path d="M65.892 120.39C66.3469 120.454 66.6929 120.413 66.9658 120.679C66.1352 120.905 65.3638 120.835 64.5071 120.81C64.3002 120.655 63.9058 120.617 63.624 120.561L65.892 120.39Z" fill="white"/>
<path d="M64.7243 120.172L65.8909 120.39L63.6229 120.561C63.9046 120.617 64.299 120.655 64.506 120.81C63.9985 120.83 63.0375 120.913 62.6455 120.615C62.9641 120.294 63.3785 120.286 63.8467 120.201C64.0929 120.204 64.4979 120.227 64.7243 120.172Z" fill="white"/>
<path d="M45.2903 75.5914C45.1604 74.77 44.979 73.8429 45.2118 73.0421L45.6058 72.8671C45.6181 74.0256 45.7184 74.5045 45.2903 75.5914Z" fill="white"/>
<path d="M127.173 66.2226C127.2 65.0582 127.292 64.4409 127.609 63.2937C127.734 64.6475 127.869 65.8789 127.813 67.245C127.718 66.6016 127.653 66.065 127.6 65.417L127.475 65.4225L127.173 66.2226Z" fill="white"/>
<path d="M62.7236 119.734C63.8708 119.77 65.3481 119.701 66.375 119.758C65.8053 119.865 65.2329 119.957 64.6581 120.032L64.7251 120.172C64.4987 120.227 64.0937 120.204 63.8475 120.201L63.8051 120.039L62.7236 119.734Z" fill="white"/>
<path d="M54.7293 70.872C54.4926 70.863 54.3757 70.8342 54.146 70.793C53.7364 70.2192 53.9267 69.7954 54.2017 69.2306L54.4482 69.2128L54.5587 69.5836C54.3729 70.1979 54.4632 70.1504 54.7293 70.872Z" fill="white"/>
<path d="M77.6318 29.9526C77.9652 29.3432 77.8595 29.3085 78.3774 29.028C78.5309 29.5982 77.931 30.045 77.8782 31.1988C77.8244 30.6607 77.8204 30.4655 77.6318 29.9526Z" fill="white"/>
<path d="M71.8439 118.514C72.3108 118.551 72.4685 118.476 72.7504 118.743C72.1431 119.105 70.5633 119.124 69.9688 118.821C70.5611 118.856 71.4 118.978 71.9115 118.742L71.8439 118.514Z" fill="white"/>
<path d="M54.7295 70.872C54.4634 70.1504 54.3731 70.1979 54.559 69.5836L54.69 70.0905C55.08 70.2382 55.3832 70.3668 55.7616 70.538L55.4943 70.7252L55.6216 70.5333L55.5573 70.5298C55.0285 71.0457 55.3915 70.7016 54.7295 70.872Z" fill="white"/>
<path d="M44.9883 87.42C45.1846 87.5287 45.5183 87.732 45.7181 87.7792C45.6616 88.1982 45.6787 88.3568 45.4102 88.686C45.0851 88.3332 45.1028 87.9573 44.9883 87.42Z" fill="white"/>
<path d="M110.886 79.361C111.006 79.7742 111.119 80.1728 111.263 80.5793C111.361 80.3202 111.449 80.0894 111.528 79.8241C111.516 80.2441 111.562 81.0421 111.184 81.2541C110.876 80.7133 110.911 79.9965 110.886 79.361Z" fill="white"/>
<path d="M53.001 80.7016L53.2278 80.8457L53.3492 81.577L53.5131 81.5854L53.6045 81.4833C53.5515 81.9728 53.632 82.1294 53.3332 82.3705C53.2486 82.2814 53.0861 82.1231 53.0236 82.0294C53.1095 81.7608 53.0233 81.0225 53.001 80.7016Z" fill="white"/>
<path d="M115.409 85.0881C116.707 84.4431 117.406 84.8961 117.906 86.2588C118.907 88.9866 119.543 92.2043 119.702 95.0949L119.733 96.4618C119.755 96.8439 119.76 97.8893 119.948 98.1399C120.328 97.3255 120.188 96.9353 120.708 96.6705C120.764 98.2772 121.681 105.98 122.365 106.83L122.752 106.871L123.241 107.1L123.316 107.316L123.186 107.474C122.871 107.379 122.826 107.347 122.541 107.176C122.032 107.685 122.207 109.293 122.158 110.019C121.417 108.66 121.065 107.589 120.626 106.141C120.597 106.046 118.725 104.459 118.394 104.133C117.706 100.109 117.74 95.8008 116.949 91.8366C116.753 90.8537 115.583 88.1794 115.134 87.174L113.584 86.4775C113.683 86.3025 113.781 86.2615 113.95 86.1501L114.018 86.1055C114.344 85.11 114.473 85.2487 115.409 85.0881Z" fill="white"/>
<path d="M87.8467 128.137C89.5133 127.893 90.1958 126.189 91.7157 125.944C96.0245 125.25 101.462 125.683 104.563 121.993C106.039 120.237 107.517 118.407 109.481 117.144C107.9 120.426 104.746 124.736 101.122 125.914C97.3738 127.132 95.268 126.105 91.7791 126.858C91.1188 127.001 88.6579 129.878 88.2752 130.085C88.4436 129.137 88.563 128.84 87.8467 128.137Z" fill="white"/>
<path d="M47.7498 88.6651C48.1067 88.243 48.0676 88.1376 48.5245 88.0487C48.95 88.5252 48.9674 90.1304 49.0315 90.8681C49.0255 91.8137 48.0701 95.9235 47.7841 97.1522C47.1835 99.7331 47.2443 103.238 46.6544 105.51L46.4542 106.05L46.2427 106.077C45.1812 104.419 46.1241 101.618 46.0875 99.6309C46.0605 98.1635 45.9988 97.0067 45.8839 95.5324C45.8496 94.017 46.7586 91.4694 47.1687 89.9481C47.2558 89.6248 47.6025 89.1728 47.7498 88.6651Z" fill="white"/>
<path d="M45.8839 95.5324C45.9988 97.0067 46.0605 98.1635 46.0875 99.6309C46.1241 101.618 45.1812 104.419 46.2427 106.077L46.4542 106.05L46.6544 105.51C46.5601 106.316 45.8663 110.668 45.5042 111.096L45.2701 111.11L45.0976 110.895C45.0592 109.319 45.2416 106.742 45.0717 105.454C44.736 102.544 45.169 98.359 45.8839 95.5324Z" fill="white"/>
<path d="M64.6486 124.505C64.353 124.499 64.058 124.475 63.765 124.435C62.2189 124.223 58.2084 122.66 57.3845 121.265C56.9899 120.597 56.9116 120.049 57.02 119.301C57.0839 119.281 57.148 119.261 57.2121 119.241C58.4055 120.604 58.7169 121.666 60.4926 122.251C64.0314 123.418 67.8871 123.017 71.4318 123.544C70.9196 123.577 65.5161 123.885 65.5217 123.887C64.9009 123.523 64.0494 123.393 63.5085 123.939L63.5981 124.187C63.98 124.289 64.272 124.373 64.6486 124.505Z" fill="white"/>
<path d="M98.5691 105.024C99.4827 104.873 99.1326 104.829 99.9857 105.282C99.6848 105.618 98.9249 106.423 98.6958 106.753C98.4869 106.787 96.5305 106.69 96.1646 106.681C94.2223 106.621 92.2791 106.604 90.3361 106.631L89.9064 106.685L89.8604 106.038C90.2351 105.838 91.7294 105.729 92.2373 105.677C94.8229 105.634 96.0377 105.703 98.5691 105.024Z" fill="white"/>
<path d="M65.2939 103.552C69.5708 107.556 72.6031 104.899 77.2486 106.236C76.4982 106.348 76.2694 106.68 75.9345 106.677C75.4935 106.61 75.2425 106.629 74.8037 106.64C72.8554 106.55 70.5504 106.534 68.6143 106.651C66.5795 106.327 65.9087 105.313 65.2939 103.552Z" fill="white"/>
<path d="M85.8174 86.3267C87.2308 88.1049 87.4047 92.4995 85.5314 93.866C85.4996 93.1229 85.554 92.6678 85.4757 91.8746L85.1554 91.7156C85.6501 89.931 85.3163 89.9924 85.1191 88.2783L85.2656 88.3183C85.5517 87.9563 85.4942 87.1709 85.8174 86.3267Z" fill="white"/>
<path d="M113.584 86.4775C111.867 85.895 111.392 81.7363 112.141 81.0543C112.558 81.5621 113.051 83.6073 113.538 84.5798C113.902 84.9782 114.798 84.9881 115.409 85.0881C114.473 85.2487 114.344 85.11 114.018 86.1055L113.95 86.1501C113.781 86.2615 113.683 86.3025 113.584 86.4775Z" fill="white"/>
<path d="M101.967 107.069L102.471 106.883L102.716 107.055C102.74 107.713 102.565 108.249 102.732 108.725C102.116 109.359 101.82 109.718 100.917 109.861C100.241 109.809 98.8815 109.707 98.4062 109.238C99.5708 108.938 100.294 108.778 101.304 108.038C101.955 107.561 101.756 107.87 101.967 107.069Z" fill="white"/>
<path d="M101.384 112.879C103.49 111.666 102.745 111.911 104.208 110.428C104.857 111.157 104.338 111.265 104.769 111.896C104.508 112.338 103.542 113.468 103.065 113.62C102.278 113.523 101.739 113.593 101.384 112.879Z" fill="white"/>
<path d="M126.402 80.7811C126.518 79.9796 126.802 77.4156 127.062 76.8643L127.328 76.884C127.454 77.255 127.459 77.3591 127.727 77.6263C127.799 78.7578 127.856 81.1902 127.032 82.0128C127.014 81.2729 127.154 80.981 126.402 80.7811Z" fill="white"/>
<path d="M42.1989 95.0935C42.3848 96.1948 42.4842 98.0122 42.578 99.1647C42.5561 99.6151 42.4811 100.015 42.6814 100.4C42.955 100.436 42.8575 100.478 43.0385 100.372C43.1322 101.117 43.1462 101.293 43.051 102.032L42.8475 102.097C42.4835 101.733 42.4153 101.68 42.3245 101.179L42.2552 101.176C42.2473 101.322 41.9031 102.101 41.8154 102.25C41.8526 100.1 41.8456 97.1505 42.1989 95.0935Z" fill="white"/>
<path d="M47.75 88.6651C47.7703 88.1838 47.7278 87.4322 48.0061 87.0922C48.3608 87.0484 48.3822 87.0391 48.7228 87.1275C49.0169 86.8953 49.3096 86.6615 49.6011 86.4259C50.4749 86.7663 49.26 90.1122 49.0318 90.8681C48.9677 90.1304 48.9503 88.5253 48.5247 88.0487C48.0678 88.1377 48.1069 88.243 47.75 88.6651Z" fill="white"/>
<path d="M63.6691 109.485C62.6006 108.42 61.7367 107.938 62.3932 106.345L62.6058 106.305C62.9183 106.624 62.9298 107.301 62.9906 107.782L63.1629 107.765L63.0358 107.808L63.5357 107.691L63.4158 107.637C63.9059 107.921 63.8376 108.067 64.1219 108.703L65.9994 109.203C65.263 109.826 64.5762 109.663 63.6691 109.485Z" fill="white"/>
<path d="M97.4453 109.781C97.9303 109.877 99.2225 110.051 99.5007 110.345L99.581 110.577C98.6005 110.672 96.2664 110.959 95.3815 110.935C94.9052 110.734 94.7802 110.478 94.4893 110.062L97.4453 109.781Z" fill="white"/>
<path d="M71.1554 109.104C73.5628 109.1 73.8879 109.073 76.1567 109.802C74.8286 109.828 70.739 110.371 69.6514 109.701C70.556 109.585 70.471 110.037 71.1554 109.104Z" fill="white"/>
<path d="M100.148 113.572C100.67 113.074 100.753 112.938 101.383 112.879C101.738 113.593 102.277 113.523 103.064 113.62C102.359 114.828 101.391 115.404 100.068 115.833C100.328 114.946 100.808 114.811 101.394 114.066L101.306 113.796C100.837 113.562 100.656 113.584 100.148 113.572Z" fill="white"/>
<path d="M65.9993 109.203C68.5911 109.401 68.5267 109.613 71.1554 109.104C70.4711 110.037 70.556 109.585 69.6514 109.701C68.1692 109.65 66.9183 109.815 65.487 110.236L65.4859 110.414L65.7167 110.593C64.811 110.506 64.4266 110.06 63.6689 109.485C64.5761 109.663 65.2628 109.826 65.9993 109.203Z" fill="white"/>
<path d="M104.208 110.428C104.884 109.869 105.308 109.146 105.993 108.941L106.272 109.08C106.53 109.98 105.458 111.404 104.77 111.896C104.338 111.265 104.857 111.157 104.208 110.428Z" fill="white"/>
<path d="M90.335 106.631C92.278 106.604 94.2212 106.621 96.1635 106.681C96.5294 106.69 98.4857 106.787 98.6947 106.753C98.2619 107.383 98.2141 107.519 97.4538 107.709L97.5115 107.362C96.9827 106.968 95.6191 107.213 94.8466 107.28L94.9051 107.027C94.1701 106.714 91.8774 106.656 91.1583 107.035C90.867 106.991 90.5931 106.788 90.335 106.631Z" fill="white"/>
<path d="M44.0702 109.374L44.0493 109.735C44.2426 110.095 44.1229 110 44.4707 110.109C44.9609 109.53 44.9933 106.428 45.0716 105.454C45.2415 106.742 45.0591 109.319 45.0975 110.895C44.5707 110.67 44.5024 110.66 43.9343 110.732C43.4695 111.091 43.4359 111.112 43.3489 111.811L43.3398 111.89C43.241 111.313 43.0863 110.619 43.1173 110.038C43.1539 109.355 43.5578 109.438 44.0702 109.374Z" fill="white"/>
<path d="M91.2725 116.797C92.9195 116.335 92.8948 115.895 94.7082 116.08C95.2135 116.248 95.7833 116.344 96.0924 116.701C95.3554 117.276 92.2968 116.709 91.2725 116.797Z" fill="white"/>
<path d="M123.07 81.8225L123.094 81.9578C123.286 83.102 122.849 83.773 123.363 84.5619C123.598 84.6192 123.843 84.6615 124.057 84.7635L123.634 84.8983L123.542 85.1978C123.564 86.0122 123.613 86.8845 123.531 87.6903C123.492 87.7406 123.309 88.1897 123.271 88.2791L123.125 88.2416C122.759 86.828 122.881 83.3249 123.07 81.8225Z" fill="white"/>
<path d="M94.8469 107.28C95.6194 107.213 96.983 106.968 97.5118 107.362L97.4541 107.709C95.6327 107.681 93.5783 107.76 91.7412 107.796L91.9285 107.281C92.9012 107.259 93.8743 107.258 94.8469 107.28Z" fill="white"/>
<path d="M115.199 82.7592C115.055 82.7326 115.004 82.6777 114.866 82.595C115.025 81.8344 115.089 81.0272 115.9 80.7005C117.019 80.7788 116.749 81.5045 117.275 82.0989C116.768 82.5235 115.367 81.8638 115.199 82.7592Z" fill="white"/>
<path d="M68.6143 106.651C70.5503 106.534 72.8554 106.55 74.8036 106.64C74.1879 107.067 73.0912 106.847 72.2112 107.085C71.3771 107.092 69.5252 106.935 68.9593 107.541L68.9351 106.927L68.6143 106.651Z" fill="white"/>
<path d="M135.04 73.1987C135.135 73.3697 135.339 73.7899 135.473 73.8902C135.774 73.7215 135.754 73.5377 135.9 73.1384L136.003 73.1859C136.063 74.2594 136.417 75.8915 135.28 76.3983L135.058 76.9389C135.134 75.5592 135.105 74.5852 135.04 73.1987Z" fill="white"/>
<path d="M101.967 107.069C102.363 106.581 102.632 106.411 103.141 106.039L103.51 106.024C104.13 106.913 103.39 108.062 102.732 108.725C102.564 108.249 102.74 107.713 102.716 107.055L102.471 106.883L101.967 107.069Z" fill="white"/>
<path d="M98.5684 105.024C99.0661 104.027 100.251 103.648 101.249 103.23C100.851 103.998 100.566 104.63 99.9849 105.282C99.1319 104.829 99.482 104.873 98.5684 105.024Z" fill="white"/>
<path d="M84.1042 98.4792C85.2715 98.8883 85.5842 100.849 85.3784 101.947C84.9369 101.557 84.0269 99.101 84.1042 98.4792Z" fill="white"/>
<path d="M97.4453 109.781C97.9036 109.692 98.0533 109.527 98.4064 109.238C98.8816 109.707 100.241 109.809 100.917 109.861C100.509 110.085 100.359 110.232 100.061 110.574C99.9482 110.577 99.6776 110.593 99.5811 110.577L99.5007 110.345C99.2226 110.051 97.9304 109.877 97.4453 109.781Z" fill="white"/>
<path d="M89.4053 105.322C90.0715 105.95 91.3064 105.584 92.2366 105.677C91.7286 105.729 90.2344 105.838 89.8596 106.038C89.3075 106.57 87.4667 106.354 86.6992 106.323C87.7298 105.942 88.8127 105.97 89.4053 105.322Z" fill="white"/>
<path d="M82.3662 131.066C83.3648 130.9 86.6477 130.738 87.3713 131.432C85.6358 131.232 84.1275 131.673 82.3662 131.066Z" fill="white"/>
<path d="M43.0368 93.4789C43.1083 95.6634 42.9273 98.3283 43.0383 100.372C42.8574 100.478 42.9548 100.436 42.6813 100.4C42.481 100.015 42.556 99.6151 42.5778 99.1647C43.0917 98.4824 42.7341 94.9834 43.0368 93.4789Z" fill="white"/>
<path d="M127.327 76.884L127.703 76.7197C127.922 76.0438 128.02 74.9903 128.351 74.6986C129.034 75.2386 128.172 77.028 127.727 77.6263C127.458 77.3591 127.454 77.255 127.327 76.884Z" fill="white"/>
<path d="M91.1592 107.035C91.8784 106.656 94.171 106.714 94.9061 107.027L94.8475 107.28C93.8749 107.258 92.9018 107.259 91.9292 107.281L91.1592 107.035Z" fill="white"/>
<path d="M120.652 95.231C120.692 95.6811 120.77 96.2346 120.707 96.6705C120.188 96.9353 120.328 97.3255 119.947 98.1399C119.76 97.8893 119.754 96.8439 119.732 96.4618L119.96 96.9342C120.195 96.7914 120.242 95.789 120.652 95.231Z" fill="white"/>
<path d="M96.0259 136.335C96.7804 136.991 96.5771 138.105 96.4287 138.999C95.7527 138.456 95.8693 137.1 96.0259 136.335Z" fill="white"/>
<path d="M122.457 136.114C123.381 135.889 124.895 135.833 125.628 136.513C124.975 136.666 123.107 136.441 122.457 136.114Z" fill="white"/>
<path d="M123.542 85.1978C123.801 85.4976 123.846 85.595 124.197 85.7477C124.05 86.5327 124.038 86.8005 124.042 87.6043L123.531 87.6903C123.614 86.8845 123.564 86.0122 123.542 85.1978Z" fill="white"/>
<path d="M119.702 95.0949C120.06 95.168 120.278 95.2217 120.652 95.231C120.242 95.789 120.195 96.7914 119.96 96.9342L119.732 96.4618L119.702 95.0949Z" fill="white"/>
<path d="M124.198 85.7477L124.545 85.9293C124.716 86.5615 124.721 86.6414 124.557 87.2742C124.269 87.5868 124.391 87.5464 124.043 87.6043C124.039 86.8005 124.051 86.5327 124.198 85.7477Z" fill="white"/>
<path d="M74.8044 106.64C75.2432 106.629 75.4942 106.61 75.9352 106.677C75.0795 107.224 73.2443 107.101 72.2119 107.085C73.092 106.847 74.1887 107.067 74.8044 106.64Z" fill="white"/>
<path d="M63.5078 123.939C64.0487 123.393 64.9002 123.523 65.5209 123.887C64.8006 123.984 64.2259 123.956 63.5078 123.939Z" fill="white"/>
<path d="M41.3807 110.998C41.5063 111.109 41.5514 111.223 41.6381 111.373C41.6675 112.006 41.6349 112.098 41.4405 112.699L41.2253 112.487C41.0787 112.006 41.2619 111.512 41.3807 110.998Z" fill="white"/>
<path d="M95.2476 95.1589C95.5771 95.1951 95.4272 95.1402 95.7048 95.3497C95.331 95.6365 94.9258 95.632 94.4588 95.6795L94.1025 95.4413L94.188 95.2846L95.2476 95.1589Z" fill="white"/>
<path d="M29.3018 102.087C30.8794 102.636 31.1651 104.563 31.8374 105.963C32.5296 107.589 33.1086 109.693 34.0445 111.067C35.0178 112.496 35.8722 112.701 36.7476 114.346C35.4981 115.15 35.3201 115.546 34.3766 116.68C32.9251 118.426 31.2499 119.391 29.1497 120.188C26.6738 120.287 27.7191 119.194 26.3294 118.744L26.098 118.815C25.9588 119.44 26.2622 119.802 26.1279 120.728L26.1948 120.86C26.3025 121.121 26.4002 121.407 26.4968 121.673C26.2437 123.837 21.4731 125.148 19.7843 126.4C18.7735 127.15 18.7156 127.182 17.7673 128.135L16.1016 127.683C13.2777 124.328 10.8564 120.459 8.10847 117.022C7.5331 116.303 6.7801 114.057 6.17708 113.604C5.85284 113.677 5.8322 113.69 5.51299 113.626L5.38477 113.194C5.69524 110.981 12.3333 108.633 14.1002 107.938C18.5123 106.205 24.7156 102.958 29.3018 102.087ZM11.7532 115.207C13.2885 117.528 14.4601 120.571 16 123.033L17.4968 122.894C20.2362 122.536 20.6575 121.563 22.9316 120.307C21.6227 118.679 20.3013 116.963 19.0733 115.266C18.6134 114.63 18.474 113.202 17.874 112.808C17.5723 112.785 17.5859 112.739 17.3538 112.853C15.5598 113.18 13.2969 114.214 11.7532 115.207ZM28.1905 116.527C28.7143 116.382 30.5406 115.902 30.5296 115.388C30.49 113.551 28.413 108.138 27.4647 106.865L27.1728 106.89C26.5137 108.056 25.6942 108.319 24.4857 108.888C23.708 108.708 23.1276 108.346 22.3207 108.166L22.3196 108.327C22.8013 108.702 22.8689 108.748 23.4623 108.909C23.5452 109.056 23.658 109.24 23.7241 109.39C23.2907 109.821 23.1714 109.802 23.041 110.31C24.1804 111.695 27.11 115.536 28.1905 116.527Z" fill="white"/>
<path d="M23.7239 109.39C23.6577 109.24 23.5449 109.056 23.462 108.909C22.8686 108.748 22.8011 108.702 22.3193 108.327L22.3204 108.166C23.1273 108.346 23.7077 108.708 24.4855 108.888L23.7239 109.39Z" fill="white"/>
<path d="M121.173 18.573C122.008 15.0773 123.784 14.3181 127.367 13.7159C127.807 13.642 130.153 16.1051 130.389 16.5167C131.083 17.7257 133.836 19.7213 133.512 21.1064C133.47 21.2861 132.351 23.3823 132.141 23.9771C131.507 22.9043 127.088 18.8363 125.371 19.1294C124.993 19.194 124.357 20.8192 124.091 21.3539C124.457 21.97 124.747 22.4413 125.175 23.0132C125.9 23.9803 129.048 26.4637 129.167 27.4345C129.033 27.7061 129.052 27.6996 128.835 27.9081C128.353 28.3728 128.725 28.8577 128.168 29.069L128.044 28.9876C127.453 28.6045 126.872 28.3498 126.25 28.0369C124.666 27.2407 123.299 25.8225 121.732 25.0461C120.65 25.509 119.493 29.1235 119.339 30.2579C121.074 31.3475 122.929 32.4315 124.439 33.8017C125.134 34.4332 124.58 36.7411 124.9 37.2766C125.488 37.0399 125.846 35.8583 126.373 35.3461C128.371 33.4065 130.282 30.6993 132.244 28.7866C134.636 26.4557 135.297 25.765 136.98 22.8567C139.81 23.3182 140.846 24.3095 142.703 26.3593C142.201 26.8982 142.181 26.7521 142.095 27.3664C142.418 28.1279 143.098 28.6113 143.948 28.615C145.146 30.4372 146.719 34.1975 144.175 35.6139L144.078 35.6672C143.216 36.1472 142.784 36.0906 141.813 36.067C141.986 34.974 142.42 33.7916 142.772 32.7295C141.981 31.706 139.296 29.2495 138.144 28.8343C137.434 29.2211 136.091 30.6727 135.408 31.287C133.143 33.3231 130.905 34.935 129.189 37.5095C130.069 38.9748 130.86 39.9841 132.212 41.0793C133.329 41.9844 134.606 42.4956 135.901 43.1181C135.986 43.2708 136.058 43.4008 136.117 43.5084C136.192 45.1972 133.365 47.7441 131.601 46.3398C130.015 45.0774 128.75 43.7607 127.43 42.2233C126 40.5577 124.806 39.6938 124.358 37.4728C122.174 35.6175 121.124 35.0274 118.705 33.518C117.994 33.0746 115.258 30.4932 114.592 29.8256C115.149 28.6458 116.526 26.7354 117.242 25.5251C118.199 23.91 118.814 22.5977 119.608 20.9118C120.061 19.4707 120.439 19.8391 121.173 18.573Z" fill="white"/>
<path d="M39.7038 118.898C40.0151 118.87 40.147 118.844 40.4231 118.696L40.7689 119.147C41.0441 119.155 41.13 119.185 41.3883 119.107C41.4356 119.374 41.7191 120.283 41.8983 120.434C44.9975 123.044 48.2391 125.501 51.431 127.983C51.6068 128.12 51.3046 128.638 51.1477 128.848C49.4132 131.172 45.6454 136.749 43.5402 138.336C41.7996 137.639 39.3734 135.348 38.126 135.498C38.0097 135.884 38.1236 135.99 38.2564 136.43C38.5364 136.666 38.8078 136.886 39.0977 137.11C42.0361 139.381 40.0828 143.187 39.7642 146.317C38.9259 145.324 38.3334 145.977 37.5118 145.374C36.914 144.468 36.9202 143.083 36.8722 142.005C36.9934 141.403 37.5193 139.249 37.3124 138.836C35.9153 138.445 33.6023 134.312 32.9567 132.891C32.8164 132.583 32.6568 131.088 32.6072 130.653C32.1685 131.008 31.8437 131.326 31.3024 131.485C29.7479 131.255 26.5672 135.572 24.7029 136.35C24.352 136.311 24.3231 136.372 24.1226 136.181C24.3055 135.966 24.3777 135.852 24.4718 135.586C24.2777 135.211 24.4204 135.341 24.0303 135.181C23.545 134.966 22.3611 134.695 21.7979 134.55C24.0301 133.772 23.9556 132.768 25.6648 131.354C29.1388 128.482 32.2775 125.287 35.7295 122.397C37.1151 121.236 38.2045 119.959 39.7038 118.898ZM45.8852 128.867C46.1371 128.648 46.4481 127.794 46.5524 127.457C46.4529 126.871 46.5608 127.067 46.1823 126.676C45.63 126.543 45.4696 126.634 44.9317 126.811C42.834 125.654 42.2225 125.527 40.1787 124.032C38.1916 125.602 35.9738 127.434 34.3529 129.369C36.2317 130.009 37.4946 130.742 38.9165 132.12C39.5316 132.716 40.8249 134.075 41.6652 133.485C42.9719 132.566 45.0142 130.198 45.8852 128.867Z" fill="white"/>
<path d="M44.9316 126.811C45.4695 126.634 45.6299 126.543 46.1822 126.676C46.5607 127.067 46.4528 126.871 46.5523 127.457C46.448 127.794 46.137 128.648 45.8851 128.867C45.6168 128.107 45.2465 127.843 44.9316 126.811Z" fill="white"/>
<path d="M134.034 104.878C138.949 100.717 137.009 105.406 140.942 105.039C141.488 105.275 141.333 105.215 141.704 105.779L141.713 106.163C141.459 106.256 141.559 106.256 141.308 106.224C140.75 105.864 139.027 105.826 138.372 105.963C137.427 105.963 137.221 105.926 136.584 106.642C135.61 108.684 133.679 111.171 132.515 113.2C131.583 114.824 130.885 116.757 129.826 118.261C130.85 119.038 137.922 124.462 138.468 125.145C138.888 127.225 138.795 129.588 141.707 127.244C141.856 126.891 141.884 126.819 141.933 126.44C142.114 125.858 144.275 124.224 144.846 123.483C147.106 120.545 151.14 116.092 152.633 112.86C150.818 112.262 149.182 111.422 147.254 110.814C145.392 113.024 145.186 114.176 144.146 116.885C143.826 115.989 143.738 115.465 143.138 114.695C142.897 114.088 142.926 113.289 142.907 112.622C143.39 111.494 145.483 106.491 146.298 106.068C150.618 105.753 148.64 108.261 149.107 108.829C150.432 108.922 150.782 108.245 152.395 108.238C153.808 108.696 156.301 109.345 157.158 110.582C157.362 111.436 155.187 115.181 154.647 116.064C153.771 117.498 152.711 118.818 151.861 120.269C150.847 122 145.956 132.022 144.75 132.341C144.104 132.511 143.191 132.098 142.666 132.495C142.571 133.02 142.572 133.587 142.225 133.865C141.984 133.597 141.1 132.178 141.037 132.148C139.467 131.386 136.957 129.321 135.531 128.634C135.385 127.986 135.53 127.94 135.683 127.214C135.406 126.717 135.426 126.84 134.839 126.538C134.595 126.104 134.066 125.608 133.701 125.25C133.389 125.08 130.986 123.993 130.798 124.006L130.677 124.344L130.524 124.666C130.783 124.811 127.055 122.053 127.323 122.316C127.312 121.641 126.65 121.536 126.128 121.389C125.439 120.248 126.193 120.201 125.676 119.115C125.214 118.743 125.102 118.744 124.523 118.665C124.643 118.304 124.681 117.573 124.718 117.16C125.155 116.389 126.053 115.424 126.69 114.34C127.003 113.448 127.435 113.619 127.855 112.669C129.063 112.281 129.908 109.648 131.249 108.84C132.479 107.405 131.924 106.611 133.566 105.74C133.683 105.472 133.886 105.139 134.034 104.878ZM127.5 121.018C127.992 120.169 127.729 119.641 127.086 118.924C126.846 119.405 126.529 119.878 126.595 120.391C126.935 120.901 126.848 120.754 127.5 121.018Z" fill="white"/>
<path d="M53.9061 20.9045C53.1079 18.8646 48.5311 8.40543 49.3944 7.17551C50.0571 7.05573 50.4655 7.37654 50.6737 6.97736C50.9497 6.44787 50.8502 6.1308 51.375 5.72112C52.4911 5.95423 53.8434 10.2196 54.2995 11.2915C55.9034 15.0613 59.2571 20.7722 59.6099 24.8343C58.282 25.0295 56.9474 25.7732 56.4123 25.7847C55.6756 25.122 56.3373 24.371 55.4466 24.0505C54.5465 24.4841 54.6142 26.5104 53.7417 27.0377C50.1812 29.1893 48.6812 31.0757 44.132 30.2095L44.0143 30.0097L44.2734 29.7238L44.6333 29.6525C45.0046 29.0505 44.0182 28.4104 44.4267 27.3174C44.9628 26.9776 45.7028 27.2873 46.3702 27.0032C48.3739 26.0159 49.5651 25.5574 50.8874 23.7713C49.8035 17.4737 42.0649 25.5088 38.907 22.6487C37.7905 21.6373 36.161 19.4648 35.5811 18.0496C35.0176 16.6746 34.9331 16.4025 36.0028 15.1729C37.8451 13.1036 42.3732 9.75072 45.0891 9.64715C47.2267 9.56561 46.992 12.3716 46.8168 13.8749C46.4109 13.8523 45.7793 13.8541 45.446 13.6493L44.6661 13.1621C43.4093 13.1149 40.8897 14.4943 39.7151 15.0571C38.7928 15.7617 39.2042 16.3857 39.3961 17.1204C40.7553 22.3272 45.2134 17.8709 48.9342 18.1059C51.1673 18.247 51.7235 19.6914 53.4288 21.3082C54.169 21.9913 53.8249 23.2633 54.4204 23.5509C54.6012 22.231 54.4882 22.0942 53.9061 20.9045Z" fill="white"/>
<path d="M20.6911 57.4871C19.0928 57.0249 17.0826 56.9278 15.6376 56.4344C12.7817 55.4589 9.09679 53.4907 6.74874 51.6131C6.8426 51.6881 5.98193 50.2766 5.99666 50.2453L6.02036 50.4913L5.96141 50.3984C6.57226 50.1192 6.51267 50.1702 7.29421 50.3787C7.73534 50.0303 7.63181 49.2478 8.46607 49.5282C11.6922 50.6127 25.3206 54.1877 26.7617 56.2083C26.9972 56.5364 27.0948 56.9439 27.0333 57.3433C26.9814 57.693 26.6815 58.2517 26.5063 58.5586C21.8166 60.1458 18.7278 62.1061 14.4263 64.3733C13.0708 65.0878 12.0809 65.7734 10.6151 66.3292C13.75 67.5814 21.2537 68.9603 23.6568 70.3123L23.7212 70.58C23.4154 70.9123 23.3244 70.994 22.9563 71.2553L22.9324 71.5632C23.2127 71.8266 23.4318 72.0368 23.6935 72.3227C22.3557 73.9519 7.10778 69.7089 4.49023 69.0145C4.25935 68.5872 3.42924 67.9668 3.33456 67.6606C2.47351 64.8766 9.19899 63.3175 10.957 62.0411C11.8381 61.4015 11.9178 61.6698 12.2272 60.6381C13.7414 59.7426 18.8071 58.0003 20.6911 57.4871Z" fill="white"/>
<path d="M43.7979 151.576C44.8254 147.557 46.5284 143.652 48.5004 140.031C50.0156 137.249 51.6897 134.681 52.584 131.638C52.7159 131.189 52.9472 130.687 53.3763 130.482C54.6525 131.469 56.4323 131.13 58.2965 131.772C60.7202 132.607 61.4533 132.892 63.6118 134.308C63.9567 135.16 63.9895 135.475 64.7786 135.822C64.7973 137.231 64.3598 137.611 64.5046 138.569C61.3668 137.744 58.3805 136.076 55.0978 135.769C54.2407 137.857 53.7662 139.819 53.0121 141.706C54.9018 142.879 56.826 143.204 58.8775 144.409L58.9534 145.066C59.3926 145.386 59.4623 146.029 59.5668 146.522L59.46 146.822C58.6642 147.114 57.3018 146.755 56.4381 146.583C54.6664 146.05 51.8162 143.795 50.8407 146.403C50.441 147.472 50.0784 148.541 49.7208 149.624C54.1706 151.263 56.8101 151.934 61.1727 154.034C60.2817 155.426 60.9279 155.304 60.5153 156.192C59.7715 156.434 59.6932 155.526 58.9736 156.119C59.0482 156.54 59.092 156.632 58.9961 157.035C57.6612 157.484 50.8974 153.769 49.1231 153.175C47.4387 152.611 45.4982 152.071 43.7979 151.576Z" fill="white"/>
<path d="M109.902 17.2731C109.39 19.5658 108.855 23.8374 106.01 24.2968C104.448 23.723 105.703 18.5574 106.227 17.7425C107.225 16.188 110.573 5.82776 111.345 5.30097C112.832 5.10309 114.641 5.98759 115.864 6.80045C118.149 8.31829 121.021 9.20032 122.067 11.9359C121.786 13.5818 121.262 15.9192 120.702 17.5387C120.668 17.6385 120.448 17.6699 120.305 17.7148C119.652 18.3264 119.396 19.051 118.901 19.3115C118.644 19.6964 118.583 19.7846 118.24 20.0935C117.879 19.9192 117.72 19.2959 117.528 18.8445C114.916 18.3011 112.561 17.7588 109.902 17.2731ZM111.164 13.5326C113.853 14.0511 115.988 15.8036 118.387 14.641C118.733 14.2358 119.158 13.8435 119.226 13.3451C118.626 12.3001 113.06 10.2951 111.766 10.1726C111.737 11.3109 111.426 12.423 111.164 13.5326Z" fill="white"/>
<path d="M25.1719 23.1779C27.4707 23.8252 29.4064 23.7003 31.6639 24.7374C34.7147 26.139 37.8688 27.3989 40.9229 28.793C41.5902 29.0975 41.8682 29.5868 42.4991 29.9012C43.504 30.3832 44.6524 30.6523 45.598 31.2464L45.6424 31.4937C44.6095 32.2263 44.9106 32.4826 43.9916 33.0005C41.9215 34.1675 37.9682 31.1436 36.933 31.6011C35.1586 32.3851 33.0523 34.8775 32.1615 36.6785C32.7786 37.7886 33.2627 38.7248 33.8057 39.8727C33.8106 40.587 33.9765 42.0993 33.4802 42.4706C33.1089 42.7485 32.9928 42.6239 32.5796 43.0582C31.4564 42.3583 29.4624 36.5615 28.5361 34.7194C27.3627 32.3861 25.4497 27.3527 24.7296 24.6868C24.6823 24.5114 25.0714 23.447 25.1719 23.1779ZM30.4258 32.0077L32.2711 30.8987C32.9479 30.2901 33.4086 29.9423 33.4627 29.0064C33.0873 27.4715 29.4752 26.4386 28.03 25.913C27.8346 27.3699 29.8281 30.5003 30.4258 32.0077ZM40.4206 31.7936C39.8751 31.1243 39.489 31.17 38.6445 31.1488C39.0908 31.7746 38.894 31.6832 39.5367 31.9301L40.4206 31.7936Z" fill="white"/>
<path d="M38.6445 31.1488C39.489 31.17 39.8752 31.1242 40.4207 31.7936L39.5368 31.9301C38.894 31.6832 39.0908 31.7746 38.6445 31.1488Z" fill="white"/>
<path d="M15.1921 45.239C16.8524 45.253 25.3885 46.5903 25.7537 46.31C26.2957 43.8493 18.4771 34.1958 17.7487 31.5887C18.0004 30.9248 18.6946 30.6574 19.3267 30.0727C20.6193 29.8678 21.2417 31.2948 21.9986 32.1488C24.3741 34.8295 26.0867 37.9355 28.218 40.8354C29.5887 42.7003 31.4664 44.6187 32.7212 46.4306C31.7836 47.1808 31.7829 47.2467 31.2231 48.266C31.2761 48.8886 31.4132 49.587 31.1107 50.1129C30.6482 50.4975 29.9313 50.5924 29.3813 50.4654C26.7029 49.847 13.8154 49.1361 12.3977 48.0066C11.7528 47.1164 10.6971 47.7675 10.1328 46.7044C10.6112 44.6653 13.4385 45.4429 15.1921 45.239Z" fill="white"/>
<path d="M151.357 47.1912C151.993 47.1936 153.218 47.1687 153.851 47.1176C155.779 46.9623 156.277 51.3565 157.201 51.4097C157.843 53.0822 158.092 55.1814 158.617 56.9101C158.677 57.1109 159.052 57.2915 159.242 57.3803C159.112 57.5442 159.188 57.5176 159.037 57.5396C157.648 57.5391 156.859 57.1107 155.745 57.7532C155.445 56.6355 155.079 55.2463 154.617 54.19C154.282 53.4227 154.059 53.2814 153.747 52.3709C153.989 51.419 153.913 50.7742 153.101 50.2844C152.601 50.2322 152.444 50.3856 152.032 50.6544L151.971 50.9645C151.315 51.7505 149.539 52.3138 149.079 53.0575C147.709 55.2738 150.881 60.084 149.352 62.036C148.885 62.3532 148.81 62.355 148.254 62.3578C147.043 61.8111 146.045 55.6881 144.193 55.0985C143.498 55.3558 143.844 55.7945 143.326 55.972C142.099 56.3917 140.991 56.559 139.926 57.3975C139.98 57.4355 140.312 57.6904 140.321 57.7104C140.88 58.9391 141.475 63.2015 141.482 64.3888C140.749 64.57 139.279 64.0167 138.828 63.3545C138.757 63.7326 138.719 63.8899 138.59 64.2515L138.29 64.2718C137.707 63.6568 136.258 56.0628 136.167 54.9852C137.332 54.124 139.519 53.319 140.862 52.6508C143.284 51.4454 145.752 50.2994 148.189 49.1338C149.502 48.5062 149.824 47.8213 151.357 47.1912Z" fill="white"/>
<path d="M69.1825 0.824219C69.8169 0.885276 70.9354 0.918994 71.4437 1.21924C72.0705 2.79582 70.7952 15.7218 70.2592 18.1334C70.1432 18.6548 69.8843 19.35 69.6576 19.8738C69.3771 20.5058 69.0784 21.1296 68.7618 21.7442C67.7115 22.0284 66.0202 22.3433 65.0051 21.9091L64.9328 21.665C64.4694 21.7377 64.4003 21.6862 63.9782 21.4667C63.3419 18.8357 58.3036 12.7602 56.4889 10.4816C57.1222 8.4229 53.416 8.05772 56.198 5.72213C60.5039 9.44005 62.3709 12.0467 65.6739 16.4107C67.0317 11.4436 67.1428 6.90097 68.0811 2.08908C68.4745 1.67047 68.8488 1.29352 69.1825 0.824219Z" fill="white"/>
<path d="M97.1192 1.40895C98.6327 1.43971 106.488 3.25951 107.871 4.69837C108.193 5.03322 107.247 8.84278 106.052 9.06547C105.115 8.63911 103.964 7.37322 103.386 6.51604C101.864 5.89994 100.263 5.41101 98.6977 4.90721C98.4247 6.75441 98.4122 8.11575 98.4856 9.96853C100.586 10.6304 105.508 11.4884 104.987 14.3168C104.55 16.6885 104.024 19.1358 103.511 21.5026C103.446 21.8062 103.054 21.8771 102.824 21.9448L102.868 22.3114C102.67 22.6097 102.638 22.6355 102.367 22.8741C102.083 22.7123 101.833 22.246 101.712 22.1992C99.4522 21.3258 95.0883 21.3626 93.2891 20C92.8928 19.6999 93.2745 15.6273 93.4446 15.0117L93.7534 14.8451C94.6057 14.881 95.0646 14.7908 95.633 15.3444C95.8474 15.9288 95.5588 17.3402 95.463 18.0293C97.9007 18.4547 99.2081 18.2335 101.608 17.7374C102.067 17.072 102.567 16.1625 102.741 15.3708C102.47 14.4773 96.0308 13.0885 95.2399 11.4323C94.4362 9.74888 95.7705 4.03298 96.1644 2.26123L97.1192 1.40895Z" fill="white"/>
<path d="M73.7204 8.69331C73.6879 6.60486 72.7587 2.89873 73.4461 1.31955C74.2496 0.631301 84.6551 0.289223 85.5154 1.10079C85.6154 1.86379 85.1475 2.73388 84.8474 3.47092C84.5728 3.81042 84.7117 3.72409 84.319 3.87794C84.3171 3.69825 84.3126 3.5186 84.3051 3.33904C84.2869 2.91947 84.3521 3.07678 84.052 2.80062C83.0117 2.87974 76.5025 2.7519 76.2407 2.97947L76.4109 3.89884C76.067 4.4841 76.6361 7.4916 76.6421 8.60986C79.4209 8.46669 82.2007 8.3411 84.9811 8.23311C84.97 8.46526 84.8694 11.6055 84.8622 11.6343C84.6771 12.3677 78.0575 12.2587 77.2948 12.281C77.2325 13.4476 77.0308 16.1763 77.7669 17.0179C79.8038 17.9056 86.0348 16.3275 87.1175 17.5685C87.342 18.3144 87.0553 18.8681 86.7677 19.5914C83.8816 20.0791 80.1621 19.6205 77.214 19.4085C76.1376 19.331 76.0648 18.9222 75.2219 18.7911C75.1107 17.9119 75.045 17.1831 74.9893 16.2995C75.2675 14.3223 74.9879 11.5948 74.395 9.68581L74.0657 9.85126L74.216 9.39459L74.1929 9.35767C73.9491 9.68205 74.0004 10.5387 73.9901 10.9986C73.9162 10.1978 73.8463 9.49282 73.7204 8.69331Z" fill="white"/>
<path d="M2.00401 79.1266C1.86296 78.0941 1.22037 75.2191 1.50241 74.4572C5.40688 75.22 8.9425 75.8923 12.919 76.1955C15.9692 76.4282 19.8104 76.0792 22.7 76.7608C24.0948 81.6807 19.9952 80.517 16.574 80.8503C15.6226 80.8658 12.8406 80.4015 11.7291 80.3031C8.42468 80.0106 5.26625 79.7339 2.00401 79.1266Z" fill="white"/>
<path d="M102.266 133.28C102.412 133.406 102.556 133.533 102.734 133.613C102.903 133.69 103.091 133.749 103.248 133.85C104.231 134.488 110.83 150.459 111.211 152.287C111.313 152.775 111.272 153.259 110.977 153.681C110.705 154.069 109.933 154.757 109.466 154.839C109.444 154.843 109.42 154.845 109.397 154.848L109.251 155.075C108.848 155.519 108.72 155.677 108.157 155.58C105.949 153.792 102.509 140.402 101.605 137.072C101.485 136.63 100.947 136.337 100.873 135.964C100.519 134.188 101.397 135.317 102.233 133.357L102.266 133.28Z" fill="white"/>
<path d="M136.214 46.2872C137.958 46.3818 144.627 41.4562 146.378 40.4157C147.215 39.9186 148.302 39.4638 149.232 39.0918C149.637 39.3703 150.005 39.6898 150.383 40.0045L150.62 39.9006C151.143 39.9034 151.623 39.8422 152.042 40.1358C151.915 41.8871 137.467 53.4711 134.571 51.7841C133.184 50.1081 134.633 47.3806 136.214 46.2872Z" fill="white"/>
<path d="M136.214 46.2872C136.871 45.6308 139.726 44.0077 140.574 43.4253C142.472 42.1216 148.783 37.8602 150.664 37.5691L150.848 37.7229C150.965 38.6174 150.684 38.8234 150.627 39.7694L150.62 39.9006L150.383 40.0045C150.005 39.6898 149.637 39.3703 149.232 39.0918C148.302 39.4638 147.214 39.9186 146.378 40.4157C144.627 41.4562 137.958 46.3818 136.214 46.2872Z" fill="white"/>
<path d="M4.48999 69.0145C3.76522 68.837 2.62126 68.6236 2.03069 68.2346C1.82145 67.6416 2.0375 67.7777 2.17776 67.0546C2.39796 65.9191 2.39412 66.414 1.82715 65.497L1.91861 65.2246C2.51394 64.8267 3.21676 65.3562 3.7592 65.0315C6.57198 63.3472 9.25127 61.9976 12.227 60.6382C11.9176 61.6698 11.8378 61.4015 10.9568 62.0411C9.19875 63.3175 2.47327 64.8766 3.33432 67.6606C3.429 67.9668 4.25911 68.5872 4.48999 69.0145Z" fill="white"/>
<path d="M75.2217 18.791C76.0646 18.9222 76.1374 19.331 77.2138 19.4085C80.1619 19.6205 83.8814 20.0791 86.7675 19.5914C86.5819 19.8175 86.5082 19.9943 86.2271 20.0682C83.3585 20.8224 78.9513 21.107 76.1432 19.9964C75.5273 19.7529 75.4234 19.3438 75.2217 18.791Z" fill="white"/>
<path d="M58.8778 144.409C59.3937 144.802 60.2032 145.404 60.6239 145.872C61.3611 146.692 61.7965 147.862 62.7592 148.449L62.6506 148.692C61.1195 148.993 57.9272 147.309 56.4385 146.583C57.3021 146.755 58.6645 147.114 59.4603 146.822L59.5671 146.522C59.4627 146.029 59.3929 145.386 58.9537 145.066L58.8778 144.409Z" fill="white"/>
<path d="M76.4105 3.89884L76.2402 2.97948C76.5021 2.7519 83.0112 2.87975 84.0515 2.80063C84.3516 3.07679 84.2864 2.91947 84.3046 3.33904C84.3121 3.5186 84.3167 3.69826 84.3186 3.87794C83.7098 3.38002 83.7438 2.57147 82.6236 3.19788L82.6519 3.37092L82.9129 3.51681L82.7503 4.0065C81.2959 3.86869 78.0023 3.93514 76.4105 3.89884Z" fill="white"/>
<path d="M134.034 104.878C134.844 103.712 135.684 102.444 137.203 102.197C138.754 101.946 140.544 103.216 140.697 104.787L140.943 105.039C137.01 105.406 138.95 100.717 134.034 104.878Z" fill="white"/>
<path d="M53.8858 7.8665C53.8444 7.22249 53.8104 6.57801 53.7835 5.93324C53.7618 5.28845 53.7658 5.11429 54.1545 4.69888C54.7547 4.63569 55.677 5.362 56.1972 5.72212C53.4152 8.0577 57.1214 8.42288 56.4881 10.4816C55.5134 9.18781 55.1195 8.89208 53.8858 7.8665Z" fill="white"/>
<path d="M24.0303 135.181C24.4204 135.341 24.2777 135.211 24.4719 135.586C24.3777 135.852 24.3056 135.966 24.1227 136.181C24.3231 136.372 24.3521 136.311 24.703 136.35C26.5673 135.572 29.7479 131.255 31.3024 131.485C30.2015 132.873 25.5283 137.785 23.6838 136.684C23.3347 136.192 23.3728 136.391 23.426 135.91L24.0303 135.181Z" fill="white"/>
<path d="M116.798 149.207C117.697 149.529 118.757 150.896 119.59 150.291C120.231 149.006 119.272 147.09 118.999 145.905L119.382 145.65C120.133 147.185 123.079 152.266 118.066 150.824C117.503 150.662 117.032 149.754 116.798 149.207Z" fill="white"/>
<path d="M22.6992 76.7608C25.0015 77.351 23.8129 79.3292 23.2665 81.0114C21.5416 81.0701 18.2265 81.211 16.5732 80.8503C19.9944 80.517 24.0941 81.6807 22.6992 76.7608Z" fill="white"/>
<path d="M124.523 118.665C125.101 118.744 125.214 118.743 125.676 119.115C126.193 120.201 125.439 120.248 126.128 121.389C126.65 121.536 127.312 121.641 127.323 122.316L126.509 122.686C125.051 122.469 124.193 120.545 123.996 119.235C123.961 119.002 124.357 118.789 124.523 118.665Z" fill="white"/>
<path d="M130.32 139.288C131.43 138.952 134.247 139.277 135.477 139.053C135.951 138.314 135.454 137.804 135.862 136.8L136.249 136.65C136.514 137.617 136.985 138.433 136.617 139.378C135.601 140.25 131.614 139.621 130.32 139.288Z" fill="white"/>
<path d="M146.299 106.068C147.073 105.637 147.559 105.604 148.431 105.511C149.968 106.89 150.514 107.475 152.395 108.238C150.783 108.245 150.432 108.922 149.108 108.829C148.64 108.261 150.619 105.753 146.299 106.068Z" fill="white"/>
<path d="M39.7636 146.317C39.7095 146.719 39.7133 146.744 39.5175 147.09C38.4047 147.456 37.0943 146.134 36.3596 145.412C36.0243 145.083 36.7451 142.515 36.8717 142.005C36.9196 143.083 36.9134 144.468 37.5113 145.374C38.3328 145.977 38.9253 145.324 39.7636 146.317Z" fill="white"/>
<path d="M151.355 47.1912C153.174 46.3523 155.476 45.9064 156.368 48.2486C156.567 48.7696 157.185 50.9041 157.199 51.4097C156.276 51.3565 155.778 46.9623 153.85 47.1176C153.217 47.1687 151.992 47.1936 151.355 47.1912Z" fill="white"/>
<path d="M130.676 124.344C131.433 124.924 132.013 125.419 132.973 125.517L133.083 125.58C134.017 126.13 133.931 126.592 134.839 126.538C135.426 126.84 135.406 126.717 135.683 127.214C135.53 127.94 135.385 127.986 135.531 128.634C134.769 128.071 130.905 125.141 130.523 124.666L130.676 124.344Z" fill="white"/>
<path d="M12.3977 48.0066C11.0205 47.7117 9.11293 47.6661 8.16648 47.395L8.07129 47.1941C8.35596 47.0072 8.48546 46.9431 8.7947 46.7985C8.92816 46.3686 8.98271 46.2471 9.19885 45.8517C10.3979 44.8838 13.6939 45.0904 15.1921 45.239C13.4385 45.4429 10.6112 44.6653 10.1328 46.7044C10.6971 47.7675 11.7527 47.1164 12.3977 48.0066Z" fill="white"/>
<path d="M138.468 125.145C139.308 125.807 140.197 126.657 141.265 126.758C141.487 126.66 141.727 126.564 141.933 126.44C141.884 126.819 141.856 126.891 141.707 127.244C138.795 129.588 138.888 127.225 138.468 125.145Z" fill="white"/>
<path d="M76.2695 22.6955L76.4184 22.4424C77.5772 22.3002 80.5807 21.4065 81.8367 22.1019C82.4526 22.443 82.0832 22.6362 83.3045 22.7841C81.5965 22.8638 80.0368 22.8278 78.3312 22.7768C77.8019 22.761 76.6728 22.6393 76.2695 22.6955Z" fill="white"/>
<path d="M44.2732 29.7238C44.3347 28.4457 42.5421 27.6398 42.043 26.5324L42.2564 26.3709C42.6217 26.3818 45.8006 26.911 46.37 27.0032C45.7025 27.2873 44.9626 26.9776 44.4265 27.3174C44.018 28.4104 45.0044 29.0505 44.6331 29.6525L44.2732 29.7238Z" fill="white"/>
<path d="M116.787 140.233C113.076 138.059 114.868 138.544 114.817 135.959C115.63 137.227 116.277 138.807 116.787 140.233Z" fill="white"/>
<path d="M30.8249 101.954C30.9643 102.365 31.0265 102.747 31.1902 103.126C31.5179 103.885 34.1107 106.72 34.0733 107.291C33.3464 106.732 32.9937 105.336 32.0708 105.377L31.8374 105.963C31.1651 104.563 30.8794 102.636 29.3018 102.087C29.5552 101.947 30.4337 101.978 30.8249 101.954Z" fill="white"/>
<path d="M33.8062 39.8727C34.0367 40.2303 34.5043 40.9197 34.6068 41.3054C34.8743 42.3135 34.4046 44.0608 33.0996 43.874C32.8903 43.5769 32.7574 43.375 32.5801 43.0581C32.9933 42.6239 33.1094 42.7485 33.4807 42.4706C33.977 42.0993 33.8111 40.587 33.8062 39.8727Z" fill="white"/>
<path d="M155.745 57.7532C156.859 57.1107 157.648 57.5391 159.037 57.5396C157.266 57.9199 158.131 58.7761 157.207 59.489L156.872 59.4404C155.886 58.6574 155.882 58.806 155.745 57.7532Z" fill="white"/>
<path d="M128.871 45.0985C129.009 45.3715 129.996 47.482 130.051 47.5332C129.898 47.8691 129.727 48.0656 129.505 48.3562L129.25 48.3518C128.694 48.0188 128.573 47.9696 128.246 47.4146C128.099 46.8846 128.64 45.6247 128.871 45.0985Z" fill="white"/>
<path d="M130.734 108.343C131.505 107.214 132.263 105.34 132.397 103.964C132.461 105.209 132.267 105.544 133.566 105.74C131.924 106.611 132.479 107.405 131.249 108.84C130.978 108.678 130.936 108.594 130.734 108.343Z" fill="white"/>
<path d="M26.1948 120.86L26.1279 120.728C26.2622 119.802 25.9588 119.44 26.098 118.815L26.3295 118.744C27.7191 119.194 26.6739 120.287 29.1498 120.188C28.2254 120.694 27.5832 120.964 26.528 120.666C26.357 120.745 26.3138 120.737 26.1948 120.86Z" fill="white"/>
<path d="M118.902 19.3115C119.397 19.051 119.653 18.3264 120.306 17.7148C120.968 17.9462 120.965 17.8345 121.174 18.573C120.439 19.8391 120.061 19.4707 119.608 20.9118C119.566 19.9852 119.697 19.7963 118.902 19.3115Z" fill="white"/>
<path d="M151.97 50.9645L152.031 50.6544C152.444 50.3856 152.6 50.2322 153.101 50.2844C153.912 50.7742 153.988 51.419 153.746 52.3709C153.627 52.3331 153.641 52.3276 153.519 52.3282C152.413 52.3341 153.049 51.672 151.97 50.9645Z" fill="white"/>
<path d="M142.907 112.622C142.926 113.289 142.897 114.088 143.138 114.695C142.738 115.049 142.657 115.855 142.272 116.56L142.069 116.504C141.376 114.826 142.095 114.085 142.907 112.622Z" fill="white"/>
<path d="M127.854 112.669C127.913 112.053 130.14 108.802 130.734 108.343C130.936 108.594 130.977 108.678 131.249 108.84C129.908 109.648 129.063 112.281 127.854 112.669Z" fill="white"/>
<path d="M73.99 10.9986C74.0003 10.5387 73.949 9.68205 74.1928 9.35767L74.2159 9.39459L74.0656 9.85126L74.3948 9.68581C74.9878 11.5948 75.2673 14.3223 74.9892 16.2995C74.8655 15.5828 74.8751 14.675 74.8585 13.9345C74.654 13.3831 74.9014 12.9121 74.6459 12.1259L74.1966 12.0796C73.8495 11.7116 73.9759 11.6826 73.99 10.9986Z" fill="white"/>
<path d="M136.584 106.642C137.222 105.926 137.428 105.963 138.372 105.963C138.849 106.744 138.848 106.712 139.794 106.776C139.57 107.173 139.534 107.225 139.189 107.521C137.805 107.879 138.366 106.851 136.584 106.642Z" fill="white"/>
<path d="M41.1126 117.088L42.2385 117.537L42.2896 117.722L42.2318 117.8C42.0184 118.139 41.6158 118.82 41.3877 119.107C41.1293 119.185 41.0434 119.155 40.7683 119.147L40.4225 118.696C40.1464 118.844 40.0145 118.87 39.7031 118.898C40.1051 117.926 40.8338 118.493 41.1126 117.088Z" fill="white"/>
<path d="M142.703 26.3593C143.535 27.1459 143.617 27.5106 143.949 28.615C143.099 28.6114 142.418 28.1279 142.096 27.3664C142.181 26.7521 142.201 26.8982 142.703 26.3593Z" fill="white"/>
<path d="M73.7208 8.69331C73.8467 9.49282 73.9166 10.1978 73.9905 10.9986C73.9764 11.6826 73.85 11.7116 74.1971 12.0796L74.6464 12.1259C74.9019 12.9121 74.6545 13.3831 74.8591 13.9345L74.5806 13.722L74.0489 13.7972L73.8594 13.5989C73.6827 12.3951 73.6293 9.91334 73.7208 8.69331Z" fill="white"/>
<path d="M64.779 135.822C65.4841 136.005 65.2756 135.854 65.7509 136.37C65.9578 137.46 65.3898 138.009 64.505 138.569C64.3603 137.611 64.7977 137.231 64.779 135.822Z" fill="white"/>
<path d="M125.946 114.113L126.456 113.975L126.691 114.34C126.053 115.424 125.156 116.389 124.718 117.16C124.671 116.086 125.863 115.86 125.111 115.061C125.4 114.75 125.669 114.434 125.946 114.113Z" fill="white"/>
<path d="M130.677 124.344L130.798 124.006C130.986 123.993 133.389 125.08 133.701 125.25L132.974 125.517C132.013 125.419 131.434 124.924 130.677 124.344Z" fill="white"/>
<path d="M138.372 105.963C139.027 105.826 140.751 105.864 141.309 106.224C140.486 106.363 139.98 106.773 139.794 106.776C138.848 106.712 138.849 106.744 138.372 105.963Z" fill="white"/>
<path d="M82.7507 4.0065L82.9134 3.51681L82.6523 3.37092L82.624 3.19788C83.7443 2.57147 83.7102 3.38001 84.319 3.87794C84.7117 3.72409 84.5728 3.81042 84.8474 3.47092L84.8262 3.85959C84.3916 4.09758 83.2738 4.03009 82.7507 4.0065Z" fill="white"/>
<path d="M53.905 20.9045C54.4872 22.0942 54.6002 22.231 54.4194 23.5509C53.8239 23.2633 54.168 21.9913 53.4277 21.3082L53.905 20.9045Z" fill="white"/>
<path d="M63.9775 21.4667C64.3996 21.6862 64.4688 21.7377 64.9321 21.665L65.0044 21.9091L64.8534 22.0268C64.803 22.5452 64.7567 22.6272 64.5381 23.0804L64.3243 23.1382C64.0127 22.8073 64.0214 21.972 63.9775 21.4667Z" fill="white"/>
<path d="M125.945 114.113C126.561 113.289 126.76 112.772 127.854 112.669C127.435 113.619 127.003 113.448 126.69 114.34L126.455 113.975L125.945 114.113Z" fill="white"/>
<path d="M133.701 125.25C134.066 125.608 134.595 126.104 134.839 126.537C133.931 126.592 134.017 126.13 133.083 125.58L132.974 125.517L133.701 125.25Z" fill="white"/>
<path d="M149.907 65.8177C152.852 66.1821 156.649 65.5339 159.654 65.9054C161.013 66.0734 162.006 70.4928 161.997 71.594C161.897 73.6217 161.913 75.5997 162.123 77.6216C162.258 78.9199 158.616 78.3479 157.727 78.4493C158.225 77.614 159.049 78.1596 159.695 77.582C159.419 77.0126 159.174 77.5309 158.787 76.8964C158.927 75.7075 158.554 71.4107 158.366 70.1069C156.979 69.7733 152.65 69.1408 151.292 69.2458C151.214 69.2977 151.119 69.3608 151.008 69.4349C151.052 72.8212 152.131 77.6679 151.437 80.8831C149.188 81.4243 146.88 81.5274 144.594 81.8397C143.93 81.9304 143.951 82.1392 143.517 82.7336C142.977 82.8647 142.905 82.7138 142.652 82.2265C141.899 80.7739 141.668 80.3251 140.253 79.4912C140.205 79.2957 139.854 77.8669 139.855 77.4983C139.856 75.4354 138.926 70.5754 139.791 68.8938C140.251 67.9973 142.025 67.9065 142.926 67.8783C143.255 71.1849 143.567 74.2642 143.794 77.5895C145.436 77.8601 147.069 77.9359 148.737 78.2363C148.65 74.9857 147.961 71.438 147.901 67.9592C148.547 66.9889 148.967 66.5018 149.907 65.8177Z" fill="white"/>
<path d="M161.997 71.594C162.179 72.4233 162.41 73.6646 162.633 74.4504V78.7638L162.453 78.757C161.291 78.7317 161.462 78.9737 160.502 79.4822C160.303 79.588 159.681 79.5554 159.421 79.5849C158.773 79.5991 158.129 79.7535 157.68 79.4711L157.709 79.2428C158.012 78.9843 158.594 78.9979 159.029 78.956L158.833 78.7265C158.374 78.6591 158.156 78.5863 157.727 78.4493C158.616 78.3479 162.258 78.9199 162.123 77.6216C161.913 75.5997 161.897 73.6217 161.997 71.594Z" fill="white"/>
<path d="M159.421 79.5849C159.68 79.5554 160.302 79.588 160.501 79.4822C161.462 78.9737 161.291 78.7317 162.452 78.757C161.577 80.2875 160.94 79.8957 159.421 79.5849Z" fill="white"/>
</g>
<defs>
<clipPath id="clip0_2_3">
<rect width="162.633" height="162" fill="white"/>
</clipPath>
</defs>
</svg>
